<?xml version="1.0" encoding="utf-8"?>
<!-- Generator: Adobe Illustrator 21.0.0, SVG Export Plug-In . SVG Version: 6.00 Build 0)  -->
<svg version="1.1" id="Layer_1" xmlns="http://www.w3.org/2000/svg" xmlns:xlink="http://www.w3.org/1999/xlink" x="0px" y="0px"
	 viewBox="0 0 20.1 13.4" style="enable-background:new 0 0 20.1 13.4;" xml:space="preserve">
<style type="text/css">
	.st0{fill:#231F20;}
	.st1{fill:#FFFFFF;}
	.st2{fill:#009A00;}
	.st3{fill:#CE1126;}
	.st4{fill:#EF2B2D;}
	.st5{fill:#007CC2;}
	.st6{fill:#FF9900;}
	.st7{fill:#0000AA;}
	.st8{fill:#FA0000;}
	.st9{fill:#AB2034;}
	.st10{fill:#0E5A3F;}
	.st11{fill:#E8A60D;}
	.st12{fill:#007A3D;}
	.st13{fill:#F7E214;}
	.st14{fill:#D81E05;}
	.st15{fill:#0072C6;}
	.st16{fill:#1EB53A;}
	.st17{fill:#008D46;}
	.st18{fill:#D2232C;}
	.st19{fill:#D62612;}
	.st20{fill:#009966;}
	.st21{fill:#FFD900;}
	.st22{fill:#ED1C24;}
	.st23{fill:#009DDC;}
	.st24{fill:#EF4135;}
	.st25{fill:#1F4085;}
	.st26{fill:#A20E23;}
	.st27{fill:#00209F;}
	.st28{fill:#FECC00;}
	.st29{fill:#011527;}
	.st30{fill:#1E6019;}
	.st31{fill:#D90B0B;}
	.st32{fill:#FECB00;}
	.st33{fill:#007E93;}
	.st34{fill:#341550;}
	.st35{fill:#222666;}
	.st36{fill:#004C64;}
	.st37{fill:#14552B;}
	.st38{fill:#F7D900;}
	.st39{fill:#F85800;}
	.st40{fill:#C00002;}
	.st41{fill:#C00067;}
	.st42{fill:#FEE8DC;}
	.st43{fill:#E60000;}
	.st44{fill:#FFCC00;}
	.st45{fill:#E50000;}
	.st46{fill:#75AADB;}
	.st47{fill:#843511;}
	.st48{fill:#FCBF49;}
	.st49{fill:#003893;}
	.st50{fill:#0067C6;}
	.st51{fill:#3E3923;}
	.st52{fill:#FECE12;}
	.st53{fill:#423E32;}
	.st54{fill:#473F2F;}
	.st55{fill:#4C421D;}
	.st56{fill:#FECE00;}
	.st57{fill:#443919;}
	.st58{fill:#FEFEFE;}
	.st59{fill:#84D6FE;}
	.st60{fill:#FBFDFF;}
	.st61{fill:#1A4895;}
	.st62{fill:#4D94C2;}
	.st63{fill:#8DC32F;}
	.st64{fill:#614F0E;}
	.st65{fill:#D21734;}
	.st66{fill:#C0148C;}
	.st67{fill:#433C21;}
	.st68{fill:#494323;}
	.st69{fill:#FDFEFF;}
	.st70{fill:#2F050B;}
	.st71{fill:#484225;}
	.st72{fill:#494836;}
	.st73{fill:#FBFDFE;}
	.st74{fill:#57702E;}
	.st75{fill:#1D3330;}
	.st76{fill:#47402D;}
	.st77{fill:#83D5FD;}
	.st78{fill:#6C996C;}
	.st79{fill:#73AD95;}
	.st80{fill:#3F3B25;}
	.st81{fill:#317CA6;}
	.st82{fill:#483F2E;}
	.st83{fill:#4894BE;}
	.st84{fill:#403B29;}
	.st85{fill:#4B4841;}
	.st86{fill:#3C3105;}
	.st87{fill:#DA0000;}
	.st88{fill:#239F40;}
	.st89{fill:#378E01;}
	.st90{fill:#E0012E;}
	.st91{fill:#E23D28;}
	.st92{fill:#F9DD16;}
	.st93{fill:#006B3F;}
	.st94{fill:#00A5DB;}
	.st95{fill:#F9DD17;}
	.st96{fill:#006847;}
	.st97{fill:#8A492A;}
	.st98{fill:#977D2F;}
	.st99{fill:#F6C73C;}
	.st100{fill:#A88C2F;}
	.st101{fill:#FAC93E;}
	.st102{fill:#FAC83E;}
	.st103{fill:#9BA066;}
	.st104{fill:#707531;}
	.st105{fill:#F6C73B;}
	.st106{fill:#9E7C2D;}
	.st107{fill:#A98B2D;}
	.st108{fill:#FAC93F;}
	.st109{fill:#FAC83D;}
	.st110{fill:#EBA72A;}
	.st111{fill:#534E47;}
	.st112{fill:#30C1DC;}
	.st113{fill:#2FC1DB;}
	.st114{fill:#0A70A6;}
	.st115{fill:#93321E;}
	.st116{fill:#FAAA51;}
	.st117{fill:#F9A950;}
	.st118{fill:#F8A950;}
	.st119{fill:#201F1E;}
	.st120{fill:#8F4520;}
	.st121{fill:#D2A466;}
	.st122{fill:#4A2815;}
	.st123{fill:#D1A365;}
	.st124{fill:#AA6C29;}
	.st125{fill:#D0A367;}
	.st126{fill:#8E441F;}
	.st127{fill:#201F1F;}
	.st128{fill:#4B2814;}
	.st129{fill:#D1A266;}
	.st130{fill:#271D14;}
	.st131{fill:#241C18;}
	.st132{fill:#D9AC6B;}
	.st133{fill:#D0A266;}
	.st134{fill:#8F451E;}
	.st135{fill:#4A2B11;}
	.st136{fill:#8E461E;}
	.st137{fill:#D0A366;}
	.st138{fill:#4C2915;}
	.st139{fill:#4E2719;}
	.st140{fill:#AA6C28;}
	.st141{fill:#8F491D;}
	.st142{fill:#CEA465;}
	.st143{fill:#6A3D19;}
	.st144{fill:#DAAB6B;}
	.st145{fill:#4C2815;}
	.st146{fill:#251D19;}
	.st147{fill:#77722F;}
	.st148{fill:#A96C28;}
	.st149{fill:#A8AB71;}
	.st150{fill:#894420;}
	.st151{fill:#1E1F1F;}
	.st152{fill:#4B2815;}
	.st153{fill:#A96B29;}
	.st154{fill:#FEFEF7;}
	.st155{fill:#C5C6A6;}
	.st156{fill:#414145;}
	.st157{fill:#DAAC6B;}
	.st158{fill:#8E451F;}
	.st159{fill:#1C211D;}
	.st160{fill:#FFEFCB;}
	.st161{fill:#B07029;}
	.st162{fill:#EE6D16;}
	.st163{fill:#DBAB6A;}
	.st164{fill:#8E4420;}
	.st165{fill:#1D1F22;}
	.st166{fill:#DDA96B;}
	.st167{fill:#040000;}
	.st168{fill:#D0A264;}
	.st169{fill:#8A5123;}
	.st170{fill:#FBE9AD;}
	.st171{fill:#A96A28;}
	.st172{fill:#1D2023;}
	.st173{fill:#FBF2D7;}
	.st174{fill:#6B3F16;}
	.st175{fill:#874D1D;}
	.st176{fill:#F7C73A;}
	.st177{fill:#FDFDF6;}
	.st178{fill:#1D2020;}
	.st179{fill:#1E201F;}
	.st180{fill:#A7AB70;}
	.st181{fill:#BE7E2C;}
	.st182{fill:#503528;}
	.st183{fill:#A8AB70;}
	.st184{fill:#8D461C;}
	.st185{fill:#FBC93C;}
	.st186{fill:#A87233;}
	.st187{fill:#AA6B2B;}
	.st188{fill:#FAC83C;}
	.st189{fill:#FAC93C;}
	.st190{fill:#D1A366;}
	.st191{fill:#4C2814;}
	.st192{fill:#FEFFF0;}
	.st193{fill:#A7AB71;}
	.st194{fill:#F9C93B;}
	.st195{fill:#8C4521;}
	.st196{fill:#382215;}
	.st197{fill:#AD7028;}
	.st198{fill:#C2905F;}
	.st199{fill:#F9CA3F;}
	.st200{fill:#FDFDF7;}
	.st201{fill:#322115;}
	.st202{fill:#1F1F1D;}
	.st203{fill:#AE6F27;}
	.st204{fill:#D0A365;}
	.st205{fill:#5A371C;}
	.st206{fill:#1D201F;}
	.st207{fill:#AA702B;}
	.st208{fill:#5A371A;}
	.st209{fill:#473727;}
	.st210{fill:#8E441E;}
	.st211{fill:#A96C29;}
	.st212{fill:#8C451F;}
	.st213{fill:#D2A367;}
	.st214{fill:#8E4520;}
	.st215{fill:#8D441F;}
	.st216{fill:#A96B28;}
	.st217{fill:#A3A876;}
	.st218{fill:#FDFEF5;}
	.st219{fill:#A7AB73;}
	.st220{fill:#D0A466;}
	.st221{fill:#FFFFFA;}
	.st222{fill:#DBAC6B;}
	.st223{fill:#1F1F1E;}
	.st224{fill:#FEFDFB;}
	.st225{fill:#77722E;}
	.st226{fill:#CFA365;}
	.st227{fill:#FEFEFD;}
	.st228{fill:#D8AC6D;}
	.st229{fill:#AA6F2B;}
	.st230{fill:#D1A466;}
	.st231{fill:#4C2813;}
	.st232{fill:#8D4520;}
	.st233{fill:#7B702C;}
	.st234{fill:#AC6F2B;}
	.st235{fill:#8D441E;}
	.st236{fill:#FDFEFD;}
	.st237{fill:#8B431F;}
	.st238{fill:#201F1D;}
	.st239{fill:#241E19;}
	.st240{fill:#513426;}
	.st241{fill:#AF6D25;}
	.st242{fill:#1A1410;}
	.st243{fill:#AB6E27;}
	.st244{fill:#AE7027;}
	.st245{fill:#1F1E1D;}
	.st246{fill:#76712D;}
	.st247{fill:#AE6F28;}
	.st248{fill:#FAC93D;}
	.st249{fill:#8A441F;}
	.st250{fill:#F9C93D;}
	.st251{fill:#FCFDF9;}
	.st252{fill:#E2B540;}
	.st253{fill:#F8C93F;}
	.st254{fill:#F9CA3C;}
	.st255{fill:#FDFDFE;}
	.st256{fill:#AE7028;}
	.st257{fill:#F9C93C;}
	.st258{fill:#A7AA71;}
	.st259{fill:#FDFDFC;}
	.st260{fill:#AD6F28;}
	.st261{fill:#707532;}
	.st262{fill:#9BA166;}
	.st263{fill:#FDFDFB;}
	.st264{fill:#7D733C;}
	.st265{fill:#9CA167;}
	.st266{fill:#4D2811;}
	.st267{fill:#A8AA71;}
	.st268{fill:#FDFDFA;}
	.st269{fill:#202020;}
	.st270{fill:#997C27;}
	.st271{fill:#A8AC71;}
	.st272{fill:#AC7027;}
	.st273{fill:#9BA167;}
	.st274{fill:#D1A265;}
	.st275{fill:#AE7128;}
	.st276{fill:#A66A2E;}
	.st277{fill:#1F1F1F;}
	.st278{fill:#AC7028;}
	.st279{fill:#F7C83C;}
	.st280{fill:#6D5A23;}
	.st281{fill:#403F14;}
	.st282{fill:#7E3E1B;}
	.st283{fill:#F5C63E;}
	.st284{fill:#F6C63C;}
	.st285{fill:#F6C73A;}
	.st286{fill:#F5C73B;}
	.st287{fill:#F7C73B;}
	.st288{fill:#F7C53B;}
	.st289{fill:#1E211E;}
	.st290{fill:#F5C73C;}
	.st291{fill:#1F211E;}
	.st292{fill:#F8C83E;}
	.st293{fill:#211F1E;}
	.st294{fill:#D0A463;}
	.st295{fill:#1F211D;}
	.st296{fill:#8BBDBE;}
	.st297{fill:#03524D;}
	.st298{fill:#20201C;}
	.st299{fill:#4A2915;}
	.st300{fill:#0D838A;}
	.st301{fill:#132424;}
	.st302{fill:#1E1F20;}
	.st303{fill:#8ABCBB;}
	.st304{fill:#8ABDBE;}
	.st305{fill:#04524D;}
	.st306{fill:#05514D;}
	.st307{fill:#1D1F21;}
	.st308{fill:#1F2021;}
	.st309{fill:#1D2021;}
	.st310{fill:#8ABCBE;}
	.st311{fill:#211D23;}
	.st312{fill:#8BBCBD;}
	.st313{fill:#251E22;}
	.st314{fill:#02524C;}
	.st315{fill:#02514F;}
	.st316{fill:#241F20;}
	.st317{fill:#04524E;}
	.st318{fill:#F5C73D;}
	.st319{fill:#182222;}
	.st320{fill:#8BBDBF;}
	.st321{fill:#211E1F;}
	.st322{fill:#8BBCBF;}
	.st323{fill:#1C2221;}
	.st324{fill:#211E1D;}
	.st325{fill:#211F1F;}
	.st326{fill:#F7C73C;}
	.st327{fill:#00534B;}
	.st328{fill:#1F2022;}
	.st329{fill:#03534D;}
	.st330{fill:#221F1F;}
	.st331{fill:#201E1F;}
	.st332{fill:#07514C;}
	.st333{fill:#F6C63B;}
	.st334{fill:#201F1C;}
	.st335{fill:#8ABDBD;}
	.st336{fill:#20211E;}
	.st337{fill:#0D848A;}
	.st338{fill:#02524D;}
	.st339{fill:#211E20;}
	.st340{fill:#0D6160;}
	.st341{fill:#211D1E;}
	.st342{fill:#8CBCBE;}
	.st343{fill:#01524C;}
	.st344{fill:#89BEBE;}
	.st345{fill:#03524F;}
	.st346{fill:#231E1F;}
	.st347{fill:#231D1E;}
	.st348{fill:#8BBCBE;}
	.st349{fill:#221D1F;}
	.st350{fill:#89BDBF;}
	.st351{fill:#201F20;}
	.st352{fill:#8CBEBF;}
	.st353{fill:#00524C;}
	.st354{fill:#8CBDBC;}
	.st355{fill:#005050;}
	.st356{fill:#201E22;}
	.st357{fill:#8BBDBD;}
	.st358{fill:#211F23;}
	.st359{fill:#231E1D;}
	.st360{fill:#8ABCBD;}
	.st361{fill:#04514D;}
	.st362{fill:#1F1E21;}
	.st363{fill:#06514E;}
	.st364{fill:#005250;}
	.st365{fill:#0D8288;}
	.st366{fill:#1E221F;}
	.st367{fill:#01534E;}
	.st368{fill:#02514E;}
	.st369{fill:#241C1C;}
	.st370{fill:#8DBCBC;}
	.st371{fill:#221E22;}
	.st372{fill:#201E20;}
	.st373{fill:#222123;}
	.st374{fill:#8ABBBE;}
	.st375{fill:#201E21;}
	.st376{fill:#88BFBE;}
	.st377{fill:#06524D;}
	.st378{fill:#87BDBE;}
	.st379{fill:#241C20;}
	.st380{fill:#06524A;}
	.st381{fill:#8ABDBC;}
	.st382{fill:#015249;}
	.st383{fill:#1E2020;}
	.st384{fill:#242020;}
	.st385{fill:#251E20;}
	.st386{fill:#707630;}
	.st387{fill:#065251;}
	.st388{fill:#E3AF65;}
	.st389{fill:#0771A6;}
	.st390{fill:#0770A5;}
	.st391{fill:#707631;}
	.st392{fill:#A78B31;}
	.st393{fill:#F8CA3F;}
	.st394{fill:url(#SVGID_1_);}
	.st395{fill:#E62735;}
	.st396{fill:#F8DE06;}
	.st397{fill:url(#SVGID_2_);}
	.st398{fill:url(#SVGID_3_);}
	.st399{fill:#A86C29;}
	.st400{fill:#0870A5;}
	.st401{fill:#3D8E33;}
	.st402{fill:#FCD856;}
	.st403{fill:#C60B1E;}
	.st404{fill:#FFC400;}
	.st405{fill:#CCCCCC;}
	.st406{fill:#0039F0;}
	.st407{fill:#FFD691;}
	.st408{fill:#AD1519;}
	.st409{fill:#058E6E;}
	.st410{fill:#ED72AA;}
	.st411{fill:#FCD116;}
	.st412{fill:#D21034;}
	.st413{fill:#007E3A;}
	.st414{fill:#0047BA;}
	.st415{fill:#339E35;}
	.st416{fill:#0038A8;}
	.st417{fill:#01AD68;}
	.st418{fill:#E90538;}
	.st419{fill:#0092C7;}
	.st420{fill:#0DB02B;}
	.st421{fill:#E05206;}
	.st422{fill:#007229;}
	.st423{fill:#FFCE00;}
	.st424{fill:#009543;}
	.st425{fill:#009900;}
	.st426{fill:#CC0000;}
	.st427{fill:#CC0001;}
	.st428{fill:#009530;}
	.st429{fill:#3A75C4;}
	.st430{fill:#009E60;}
	.st431{fill:#008751;}
	.st432{fill:#009460;}
	.st433{fill:#0045E6;}
	.st434{fill:#FFE60D;}
	.st435{fill:#F21830;}
	.st436{fill:#FFDE00;}
	.st437{fill:#EE0000;}
	.st438{fill:#002F66;}
	.st439{fill:#009A63;}
	.st440{fill:#FF823D;}
	.st441{fill:#F77F00;}
	.st442{fill:#14B53A;}
	.st443{fill:#002569;}
	.st444{fill:#E9E8E7;}
	.st445{fill:#D41D3B;}
	.st446{fill:#007A5E;}
	.st447{fill:#F9D616;}
	.st448{fill:#008638;}
	.st449{fill:#ED0000;}
	.st450{fill:#E70013;}
	.st451{fill:#00853F;}
	.st452{fill:#FDEF42;}
	.st453{fill:#E31B23;}
	.st454{fill:#009E49;}
	.st455{fill:#002B7F;}
	.st456{fill:#FFD83D;}
	.st457{fill:#008400;}
	.st458{fill:#00923E;}
	.st459{fill:#F8C100;}
	.st460{fill:#28166F;}
	.st461{fill:#BE0026;}
	.st462{fill:#E30A17;}
	.st463{fill:#DC181E;}
	.st464{fill:#169253;}
	.st465{fill:#FCEB0F;}
	.st466{fill:#012A87;}
	.st467{fill:#BD2925;}
	.st468{fill:#138808;}
	.st469{fill:#FF9933;}
	.st470{fill:#000066;}
	.st471{fill:#4189DD;}
	.st472{fill:#00539B;}
	.st473{fill:#D21242;}
	.st474{fill:#FFD200;}
	.st475{fill:#1F1A17;}
	.st476{fill:#FDDB00;}
	.st477{fill:#DE2910;}
	.st478{fill:#030001;}
	.st479{fill:#009531;}
	.st480{fill:#F93F26;}
	.st481{fill:#009E3F;}
	.st482{fill:#E8112D;}
	.st483{fill:#FFE700;}
	.st484{fill:#DE3908;}
	.st485{fill:#DE3107;}
	.st486{fill:#FEE601;}
	.st487{fill:#9BA59C;}
	.st488{fill:#FFFEFF;}
	.st489{fill:#DE1018;}
	.st490{fill:#00247D;}
	.st491{fill:#A12830;}
	.st492{fill:#E31937;}
	.st493{fill:#ED8000;}
	.st494{fill:#006651;}
	.st495{fill:#CF142B;}
	.st496{fill:#0033AB;}
	.st497{fill:#F7D117;}
	.st498{fill:#0000B3;}
	.st499{fill:#E32110;}
	.st500{fill:#FDF701;}
	.st501{fill:#86632B;}
	.st502{fill:#D32620;}
	.st503{fill:#025C33;}
	.st504{fill:#005BA4;}
	.st505{fill:#BF0000;}
	.st506{fill:#BD6B00;}
	.st507{fill:#FFFEFE;}
	.st508{fill:#055E00;}
	.st509{fill:#BD6B29;}
	.st510{fill:#FF0000;}
	.st511{fill:#005CE6;}
	.st512{fill:#FDE403;}
	.st513{fill:#000099;}
	.st514{fill:#C40308;}
	.st515{fill:#D3AE3B;}
	.st516{fill:#B86A1E;}
	.st517{fill:#D4AF3C;}
	.st518{fill:#1F5E91;}
	.st519{fill:#6D8C3E;}
	.st520{fill:#2C2E2D;}
	.st521{fill:#444349;}
	.st522{fill:#FFE600;}
	.st523{fill:#E4CCCA;}
	.st524{fill:#DDB3A7;}
	.st525{fill:#DEDEDE;}
	.st526{fill:#303030;}
	.st527{fill:#050403;}
	.st528{fill:#FDD116;}
	.st529{fill:#053A91;}
	.st530{fill:#CE1127;}
	.st531{fill:#FDB301;}
	.st532{fill:#010088;}
	.st533{fill:#0000C4;}
	.st534{fill:#994B18;}
	.st535{fill:#C7A77E;}
	.st536{fill:#3479BE;}
	.st537{fill:#48637E;}
	.st538{fill:#557E44;}
	.st539{fill:#FFBF04;}
	.st540{fill:#B3B37E;}
	.st541{fill:#000200;}
	.st542{fill:#005A00;}
	.st543{fill:#009600;}
	.st544{fill:#86C7E3;}
	.st545{fill:#1F4B19;}
	.st546{fill:#AD3925;}
	.st547{fill:#191919;}
	.st548{fill:#CBCBCB;}
	.st549{fill:#663200;}
	.st550{fill:#FDCD00;}
	.st551{fill:#66CCCC;}
	.st552{fill:#FEE400;}
	.st553{fill:#D21033;}
	.st554{fill:#FEFECC;}
	.st555{fill:#D10F32;}
	.st556{fill:#020202;}
	.st557{fill:#00267F;}
	.st558{fill:#FFC726;}
	.st559{fill:#75B2DD;}
	.st560{fill:#380096;}
	.st561{fill:#FCE016;}
	.st562{fill:#D81C3F;}
	.st563{fill:#7A3F28;}
	.st564{fill:#D1BF91;}
	.st565{fill:#FBE015;}
	.st566{fill:#0B51A1;}
	.st567{fill:#F42A41;}
	.st568{fill:#003082;}
	.st569{fill:#289728;}
	.st570{fill:#003F87;}
	.st571{fill:#DC171C;}
	.st572{fill:#47AECF;}
	.st573{fill:#FBEA0F;}
	.st574{fill:#2563C1;}
	.st575{fill:#006700;}
	.st576{fill:#042604;}
	.st577{fill:#006601;}
	.st578{fill:#0082D1;}
	.st579{fill:#00AA39;}
	.st580{fill:#994C1A;}
	.st581{fill:#EAD358;}
	.st582{fill:#D00F32;}
	.st583{fill:#010101;}
	.st584{fill:#FCDE4A;}
	.st585{fill:#0081D2;}
	.st586{fill:#020201;}
	.st587{fill:#01AA39;}
	.st588{fill:#D01233;}
	.st589{fill:#00AB39;}
	.st590{fill:#BF0A30;}
	.st591{fill:#002868;}
	.st592{fill:#00B5CC;}
	.st593{fill:#FEC91B;}
	.st594{fill:#006A4E;}
	.st595{fill:#D7141A;}
	.st596{fill:#11457E;}
	.st597{fill:#00ABC9;}
	.st598{fill:#FAE042;}
	.st599{fill:#EFB22D;}
	.st600{fill:#2F2F2F;}
	.st601{fill:#E60D2E;}
	.st602{fill:#96877D;}
	.st603{fill:#95877E;}
	.st604{fill:#D0D0D0;}
	.st605{fill:#0061AA;}
	.st606{fill:#FBEA0E;}
	.st607{fill:#DC080D;}
	.st608{fill:#0084C9;}
	.st609{fill:#007C59;}
	.st610{fill:#EAAF0F;}
	.st611{fill:#FC3D32;}
	.st612{fill:#006600;}
	.st613{fill:#D42E12;}
	.st614{fill:#0035AD;}
	.st615{fill:#FE9900;}
	.st616{fill:#B31B34;}
	.st617{fill:#FF9A00;}
	.st618{fill:#970000;}
	.st619{fill:#198A00;}
	.st620{fill:#EF7D00;}
	.st621{fill:#DE2010;}
	.st622{fill:#291908;}
	.st623{fill:#DA2D1C;}
	.st624{fill:#2042A1;}
	.st625{fill:#2042A0;}
	.st626{fill:#70193D;}
	.st627{fill:#009977;}
	.st628{fill:#005B99;}
	.st629{fill:#D00C33;}
	.st630{fill:#00529B;}
	.st631{fill:#EE3424;}
	.st632{fill:#005596;}
	.st633{fill:#12AD2B;}
	.st634{fill:#EA0437;}
	.st635{fill:#FEC726;}
	.st636{fill:#002649;}
	.st637{fill:#DC241F;}
	.st638{fill:#FFD100;}
	.st639{fill:#002A8F;}
	.st640{fill:#0050F0;}
	.st641{fill:#FCE100;}
	.st642{fill:#007168;}
	.st643{fill:#EF2D28;}
	.st644{fill:#E32118;}
	.st645{fill:#3E9A00;}
	.st646{fill:#0073CE;}
	.st647{fill:#020101;}
	.st648{fill:#009301;}
	.st649{fill:#016601;}
	.st650{fill:#672800;}
	.st651{fill:#FED101;}
	.st652{fill:#408040;}
	.st653{fill:#333333;}
	.st654{fill:#CC3333;}
	.st655{fill:#003580;}
	.st656{fill:#C10000;}
	.st657{fill:#4AADD6;}
	.st658{fill:#01247D;}
	.st659{fill:#004990;}
	.st660{fill:#EF3E42;}
	.st661{fill:#171796;}
	.st662{fill:#5B97B1;}
	.st663{fill:#C1510E;}
	.st664{fill:#CE2028;}
	.st665{fill:#D12026;}
	.st666{fill:#002D62;}
	.st667{fill:#9E9890;}
	.st668{fill:#002E62;}
	.st669{fill:#23190D;}
	.st670{fill:#013E03;}
	.st671{fill:#017B64;}
	.st672{fill:#090203;}
	.st673{fill:#6AB2E7;}
	.st674{fill:#3A7728;}
	.st675{fill:#0C1C8C;}
	.st676{fill:#FFC61E;}
	.st677{fill:#308A2A;}
	.st678{fill:#F9DA00;}
	.st679{fill:#034DA2;}
	.st680{fill:#ED1D25;}
	.st681{fill:#0099B5;}
	.st682{fill:#BB0000;}
	.st683{fill:#319208;}
	.st684{fill:#FFC617;}
	.st685{fill:#00A3DD;}
	.st686{fill:#F7D618;}
	.st687{fill:#CE1021;}
	.st688{fill:#0148C8;}
	.st689{fill:#552300;}
	.st690{fill:#007F00;}
	.st691{fill:#005800;}
	.st692{fill:#289400;}
	.st693{fill:#204B24;}
	.st694{fill:#6599FE;}
	.st695{fill:#720000;}
	.st696{fill:#B24A01;}
	.st697{fill:#FFD83B;}
	.st698{fill:#9DD7FF;}
	.st699{fill:#FC0017;}
	.st700{fill:#710000;}
	.st701{fill:#006AC8;}
	.st702{fill:#59C800;}
	.st703{fill:#730000;}
	.st704{fill:#B34B00;}
	.st705{fill:url(#SVGID_4_);}
	.st706{fill:#FFB366;}
	.st707{fill:url(#SVGID_5_);}
	.st708{fill:#9B5F00;}
	.st709{fill:#FFA54B;}
	.st710{fill:url(#SVGID_6_);}
	.st711{fill:url(#SVGID_7_);}
	.st712{fill:#5AC800;}
	.st713{fill:#3E5EB9;}
	.st714{fill:#B10C0C;}
	.st715{fill:#3D5DA7;}
	.st716{fill:#A70000;}
	.st717{fill:#FBDE4A;}
	.st718{fill:#D62828;}
	.st719{fill:#DD7500;}
	.st720{fill:#000100;}
	.st721{fill:#96239A;}
	.st722{fill:#EA0337;}
	.st723{fill:#AA5600;}
	.st724{fill:#F7E017;}
	.st725{fill:#040102;}
	.st726{fill:#CE1125;}
	.st727{fill:#FBD014;}
	.st728{fill:#0055A4;}
	.st729{fill:#008A5F;}
	.st730{fill:#FDBB30;}
	.st731{fill:#215B33;}
	.st732{fill:#0051BA;}
	.st733{fill:#0079C1;}
	.st734{fill:#BD9B07;}
	.st735{fill:#9C1E3D;}
	.st736{fill:#FF7300;}
	.st737{fill:#007900;}
	.st738{fill:#FE0000;}
	.st739{fill:#CE1124;}
	.st740{fill:#F7D917;}
	.st741{fill:#5881BB;}
	.st742{fill:#00785E;}
	.st743{fill:#FBD116;}
	.st744{fill:#D61517;}
	.st745{fill:#D61516;}
	.st746{fill:#393E90;}
	.st747{fill:#8E3836;}
	.st748{fill:#544B20;}
	.st749{fill:#F9F704;}
	.st750{fill:#3B75D9;}
	.st751{fill:#FEC502;}
	.st752{fill:#FAFC12;}
	.st753{fill:#F8F604;}
	.st754{fill:#31120A;}
	.st755{fill:#502D17;}
	.st756{fill:#0000FF;}
	.st757{fill:#FFBE00;}
	.st758{fill:#BB0D0D;}
	.st759{fill:#FFBD03;}
	.st760{fill:#171A0E;}
	.st761{fill:#FFBE04;}
	.st762{fill:#CB0631;}
	.st763{fill:#048E6D;}
	.st764{fill:#D72B2B;}
	.st765{fill:#C0C0C0;}
	.st766{fill:#008000;}
	.st767{fill:#003399;}
	.st768{fill:#DA000C;}
	.st769{fill:#F8D80E;}
	.st770{fill:#3A7DCE;}
</style>
<g>
	<path class="st0" d="M0,13.4V0h20.1v13.4v0H0z M20,13.4L20,13.4L20,13.4z M0.1,13.3H20l0-13.3H0.1V13.3z"/>
	<rect x="0" y="0" width="6.7" height="13.3"/>
	<rect x="6.7" y="0" class="st505" width="6.7" height="13.3"/>
	<rect x="13.4" y="0" class="st425" width="6.7" height="13.3"/>
	<path class="st506" d="M12.4,8.4l-0.1,0l-0.1,0v0L12.4,8.4l-0.1,0.2l-0.2,0.1c-0.1,0-0.2,0-0.3,0l0-0.1l0,0.1l-0.2-0.1l-0.2-0.1
		l0-0.1l-0.1,0.1l-0.1,0l0-0.1h0l0,0.1l-0.1,0l0.1-0.1l0.1-0.1c0.1,0,0.2-0.1,0.3,0c0.2,0,0.4,0.2,0.5,0.2l0.1,0l0,0l-0.2,0
		c-0.2-0.1-0.3-0.2-0.5-0.2l0-0.1l0,0l0.1,0l0,0l0.2-0.1l0,0.1l0.1,0L12,8l0.1-0.1l0,0.1l0,0.1l0,0l0-0.1l0-0.2l0.1-0.1l-0.1,0.1
		l0,0l-0.3,0.2L11.8,8l-0.1-0.1l0-0.1l0,0l0,0.2l0.1,0l0,0l0,0l-0.1,0.1L11.7,8l0-0.1l0,0.2L11.5,8l0,0.2c-0.1,0-0.2,0-0.3,0.1
		l-0.2,0.1l0,0.1l0.1,0l0,0.2l0,0.1l0.1,0l0,0.1h0.1l0.2-0.1l0,0l-0.2,0l-0.1,0l0-0.3l0.1,0l0,0.2l0.1,0l0,0l0,0.1l0.1,0l0.2-0.1
		c0.1,0.1,0.2,0.1,0.3,0.2l-0.1,0.1l0-0.1l0,0l-0.1,0.1l0-0.1l-0.1,0.1l-0.2,0.1l0,0.1l0,0l0,0l0,0l-0.2,0l0,0L11.1,9l0.1-0.1l0,0.1
		l0.1,0L11.3,9l0.2-0.2l0-0.1l-0.1,0l-0.1,0.1l-0.1,0l-0.2,0l-0.1,0c0-0.1,0-0.2,0-0.3l0,0l0,0.2l-0.1,0l0,0l0,0.1
		C10.7,8.9,10.5,9,10.3,9C10.1,9,10,9,9.8,9C9.6,9,9.4,8.9,9.2,8.8l0-0.1l0,0l-0.1,0L9.1,8.6l0,0l0,0.1l0,0.2L9,8.8l-0.2,0l-0.1,0
		l0,0l0.2,0.1l0.1,0l0-0.1l0,0l0.1-0.1l0,0L9.1,8.9l-0.2,0L9,9L8.9,9.1l0,0l0.1,0l0-0.1C8.8,8.8,8.6,8.7,8.6,8.6v0l0.1,0.1L8.8,9
		L8.6,9.1l-0.1,0l0.1,0l0.2,0L8.7,9.2l-0.1,0L8.4,9.1C8.3,9.1,8.2,9.1,8.1,9l0.1,0.1l0.2,0.1l0.2,0.1l0,0l0.1,0.1l0.2,0.1l0.2,0l0,0
		l0,0.1l0,0.1l0,0l0,0l0.1,0l0.3,0.1l0.1,0l0.1,0l0-0.1l0.1-0.1c0.1,0,0.2,0,0.3,0l0.2,0l0.1,0l0.1,0.1l0.1,0l0.2,0
		c0.1,0,0.2,0,0.3,0l0.1,0l0,0l0-0.1l0,0l0,0l0.2-0.1l0.2-0.1l0-0.1l0.2,0l0.2-0.1L12,9.1l0,0l-0.1,0c-0.1,0-0.2,0.1-0.4,0.1
		l-0.1,0.1l-0.1-0.1c0.1,0,0.2,0,0.3,0l0,0l0,0l0.1,0L11.8,9l-0.2,0l-0.2,0l0.1-0.1l0,0l0,0l0,0l0.1,0l0.3,0l0,0l-0.2,0
		c0.1,0,0.2,0,0.3-0.1l0.1-0.1l-0.3,0l-0.1,0l0,0l0,0.1l-0.1,0l0.1-0.1l0,0l0.1,0l0.1-0.2c0.1,0,0.2,0,0.3,0l0.2-0.1L12.4,8.4
		L12.4,8.4L12.4,8.4z M11.4,8.5l-0.1,0l0,0l0-0.2l0.1,0l0,0.1L11.4,8.5L11.4,8.5L11.4,8.5L11.4,8.5z M9.5,9.7
		c-0.1-0.1-0.3-0.1-0.5,0l0-0.1l0.2,0l0.2,0L9.5,9.7L9.5,9.7z M10.9,8.8L10.9,8.8L10.9,8.8L10.9,8.8z M10.5,9.7L10.5,9.7l0-0.1
		l0.2,0l0.2,0l0,0.1C10.9,9.6,10.7,9.6,10.5,9.7z M11.1,8.9L11.1,8.9L11.1,8.9L11.1,8.9l0.2,0l0.1-0.1l-0.1,0.1l0,0L11.1,8.9z"/>
	<path class="st507" d="M11.4,9.3C11.3,9.1,11.1,9,11,8.9l-0.1,0l-0.1,0C10.6,9,10.3,9,10,9C9.9,9,9.8,9,9.6,9
		c-0.1,0-0.3-0.1-0.4-0.1l-0.1,0l-0.1,0C9,9,8.8,9.1,8.7,9.2L8.6,9.3l0,0.1l0.1,0.1L9,9.5l0,0.1l0,0.1l0,0l0,0l0.1-0.1
		c0.1,0,0.2,0,0.3,0.1l0.1,0l0,0l0-0.1l0,0c0.1,0,0.2,0,0.3,0c0.1,0,0.2,0,0.3,0l0.1,0l0.1,0.1l0.2,0l0.2,0l0.2,0l0.1,0l0-0.1l0-0.1
		l0,0c0.1,0,0.2,0,0.3-0.1L11.4,9.3L11.4,9.3z M9.5,9.7c-0.1-0.1-0.3-0.1-0.5,0l0-0.1l0.2,0l0.2,0L9.5,9.7L9.5,9.7z M10.5,9.7
		L10.5,9.7l0-0.1l0.2,0l0.2,0l0,0.1C10.9,9.6,10.7,9.6,10.5,9.7z"/>
	<polygon class="st506" points="12.1,7.7 12,7.9 12,7.9 11.9,8 	"/>
	<path class="st506" d="M13,7.3l0-0.1l0,0c-0.1,0.1-0.2,0.1-0.3,0.2l0-0.1l0.1,0l0.1-0.2L13,6.9l0,0L12.8,7c-0.1,0-0.2,0.1-0.4,0.1
		l0.1,0l0.1-0.2l-0.1,0.1L12.4,7l0,0.1l0,0l0,0l0,0l0-0.1l-0.1-0.1l0-0.1l0,0.1l0.1,0.2l-0.1,0l0-0.1l0.1-0.2l0.1-0.2l0,0.1l0.1,0
		l0,0l0,0.1l-0.1,0.1l0,0.1l0.1-0.1l0-0.1l0-0.1l0-0.2l-0.1,0.1l-0.1,0.1l-0.1-0.2l0,0l0,0.1l0,0l0.1-0.1l0-0.2l0,0l0.1-0.1l0.1-0.1
		l0,0.1l0.1,0l0-0.1l-0.1-0.1L12.6,6l0,0l-0.2,0l0,0l0-0.2l0,0l0,0l-0.1,0.2l0-0.2l0-0.1l0-0.1l-0.1,0l-0.1,0.1l0-0.1l0,0l-0.1,0
		l0,0.1l0,0.1l-0.1-0.1l-0.1,0l0,0L12,5.9l0.2,0.2l0,0.1l-0.1,0.1C12.1,6.4,12,6.5,12,6.6c0,0.1,0,0.3,0.1,0.4l-0.1,0l0.1,0.2
		l-0.2,0.1l-0.1,0.2l0,0.1l0,0.1l0,0.1l0.1,0l0-0.1l-0.1-0.1l0.2-0.1l-0.1,0.1l0,0l0.1,0L12,7.5l0.2,0L12,7.6l0,0.1l0,0l-0.1,0.1
		l0,0.1l0,0.1l0.1,0L12,7.8l0.2-0.2l0-0.1l-0.1,0.1l0.1-0.1c0.1,0,0.2,0,0.3-0.1l-0.1,0.2l0,0.1l0-0.1l0,0l0,0.2l0,0.1l0.1,0l0-0.1
		l-0.1-0.2l0.1,0l0,0.1l0.1,0l0.2-0.2l0-0.1l-0.1,0.1l0.1-0.1l0.1-0.1l-0.1,0l-0.1,0L13,7.3z M12.5,7.4L12.5,7.4l0,0.1L12.5,7.4z
		 M12.6,7.7l-0.1,0l0-0.1L12.6,7.7l0-0.2l-0.1-0.1l0.1,0l0,0.1l0.1,0l0,0h0.1L12.6,7.7L12.6,7.7z"/>
	<path class="st506" d="M8.7,5L8.5,5.1L8.4,5.2l0-0.1l0-0.2l0,0L8.3,5.1l0,0.1l0-0.1l0,0.1l0.1,0L8.3,5.4l0-0.2l0-0.1l0,0L8.2,5.4
		l0-0.1L8.1,5.4l0,0.2l0.1,0.1l0,0l0.1,0l0.1,0l0.1-0.2l0,0l0.1-0.1l0.1-0.1L8.7,5L8.7,5z M8.2,5.6l0-0.1l0.1,0l0,0l0,0l0.1,0
		L8.2,5.6z"/>
	<path class="st506" d="M8.3,4.8L8.3,4.8L8,5.1c0-0.2,0-0.4,0-0.5C8,4.7,7.9,4.9,7.9,5l0-0.2l0,0c0,0.1,0,0.3,0,0.4l0.1,0.1l0,0l0,0
		l0.1,0l0.1-0.1l0,0L8.3,4.8L8.3,4.8L8.3,4.8z M8,5.2L8,5.2L8,5L8,5.2L8,5.2L8,5.2L8,5.2l0.2-0.1L8,5.2z"/>
	<polygon class="st1" points="10,3.7 10.1,3.7 10.1,3.7 10,3.8 10,3.8 	"/>
	<polygon class="st1" points="9.8,3.8 9.9,3.7 9.9,3.8 9.8,3.8 9.8,3.8 	"/>
	<polygon class="st1" points="9.6,3.8 9.7,3.8 9.7,3.8 9.7,3.9 9.6,3.9 9.5,3.9 9.5,3.9 9.4,3.9 9.4,4 9.2,4.2 9.3,4.4 9.2,4.5 
		9,4.5 8.9,4.4 8.9,4.4 9,4.5 9.1,4.5 9.2,4.4 9.2,4.2 9.1,4.3 9,4.2 9.1,4.2 9.2,4.2 9.1,4 9,3.9 9.1,3.9 9.1,4 9.2,4.1 9.3,4 
		9.2,4 9.2,3.9 9.2,3.8 9.3,3.9 9.3,3.9 9.4,3.9 9.4,3.8 9.4,3.8 9.5,3.9 9.5,3.9 9.5,3.8 9.6,3.9 9.6,3.8 	"/>
	<path class="st1" d="M10.1,3.8L10.1,3.8l0.1,0.1l-0.1,0L9.9,4l0.2,0l0.1,0l0,0l0,0l-0.2,0L9.9,4.2L10,4.3l0,0l-0.1,0L9.8,4.2l0,0
		L9.6,4.3l-0.1,0L9.4,4.4l0,0l0-0.1l0,0l0.1-0.1l0-0.2l0,0l0,0l0,0.1l0.1-0.1l0-0.1l0-0.1l0.1,0l0,0.1L9.6,4.3l0.1,0l0.1-0.1l0-0.1
		L9.7,3.9l0-0.1l0,0l0,0c0,0.1,0.1,0.2,0.1,0.3l0,0L10,4.1l-0.1,0l0,0l0-0.1L10,3.9L10.1,3.8L10.1,3.8L10.1,3.8L10.1,3.8z"/>
	<polygon class="st1" points="10.5,3.8 10.5,3.8 10.5,3.8 	"/>
	<polygon class="st1" points="10.3,3.8 10.3,3.8 10.3,3.9 10.3,3.9 	"/>
	<polygon class="st1" points="9.9,3.8 9.9,3.9 9.9,3.9 9.9,3.9 9.8,3.9 9.9,3.9 	"/>
	<polygon class="st1" points="10.5,3.9 10.6,3.9 10.6,4 10.5,4 10.4,4 10.4,3.9 10.4,3.9 10.5,3.9 10.5,3.9 10.5,3.9 	"/>
	<polygon class="st1" points="9.2,3.9 9.2,3.9 9.3,3.9 9.3,4 	"/>
	<polygon class="st1" points="9.2,3.9 9.3,3.9 9.2,3.9 	"/>
	<polygon class="st1" points="8.9,3.9 9,4 9,4 8.9,4.1 8.9,4.1 8.9,4 8.9,4 	"/>
	<polygon class="st1" points="9.4,4.1 9.5,4 9.5,4 9.4,4.1 9.4,4.1 	"/>
	<path class="st1" d="M11.3,4L11.3,4L11.3,4c0,0.2-0.1,0.3-0.2,0.4l0,0l0,0l0-0.1C11.2,4.3,11.2,4.2,11.3,4L11.3,4z"/>
	<path class="st1" d="M8.7,4L8.7,4C8.9,4.2,8.9,4.3,9,4.4l0,0.1l0,0C8.9,4.3,8.8,4.2,8.7,4L8.7,4z"/>
	<polygon class="st1" points="10.5,4.1 10.5,4.1 10.5,4.1 10.5,4.3 10.6,4.3 10.6,4.3 10.6,4.1 10.6,4.1 10.7,4.1 10.7,4.2 
		10.7,4.2 10.7,4.3 10.6,4.4 10.5,4.4 10.4,4.4 10.3,4.4 10.3,4.2 10.3,4.3 10.2,4.4 10.1,4.4 10.1,4.3 10.1,4.2 10.1,4.2 10.1,4.3 
		10.2,4.3 10.3,4.2 10.3,4.1 10.3,4.1 10.3,4.1 10.3,4.3 10.3,4.4 10.4,4.3 	"/>
	<polygon class="st1" points="10.9,4 11,4.1 11,4 11.1,4.1 11,4.1 10.9,4.1 	"/>
	<polygon class="st1" points="8.6,4.1 8.7,4.1 8.6,4.2 8.6,4.1 	"/>
	<path class="st1" d="M11.9,4.4L11.9,4.4L11.9,4.4c-0.1,0.2-0.1,0.3-0.2,0.3l0,0l0-0.1l0,0l0.1-0.1l0-0.1l0,0l-0.1,0.1l0,0.1l0-0.1
		l0.1-0.1l0-0.1l-0.1,0l0,0.1l-0.1-0.1l0,0l0,0.1l0.1,0.1l0,0l-0.1,0.2l-0.1,0.1l0-0.1l0-0.1l-0.1,0l-0.1,0l-0.1,0l0-0.1l0.1-0.1
		l0.1-0.2l0-0.1l0-0.1l0-0.1l0,0l0,0L11,4l0,0l0.1,0c0,0.1-0.1,0.2-0.1,0.3l0,0.1l0,0l-0.1-0.3l0.1-0.2l0-0.1l0,0l0,0.2l-0.1-0.2
		l0,0l0,0.1l0.1,0l0.1,0.2v0.1l-0.1,0.2l0,0.1l0,0l0,0l0.2,0l0,0.1l0.1,0l0.2-0.1l0,0.1l0,0l0.1,0l0.1-0.1l0.1-0.2l0,0.1l-0.1,0.1
		l0,0.1l0,0l0.1-0.1l0,0.1l0,0l-0.2,0l-0.1,0l0,0l0.1,0l0.2-0.1l0.2-0.3L11.9,4.4z M10.8,4.5l0.1-0.3l0.1,0.2l0,0L10.8,4.5z"/>
	<polygon class="st1" points="9.4,4.2 9.4,4.2 9.4,4.3 	"/>
	<polygon class="st1" points="8.4,4.3 8.5,4.3 8.5,4.3 	"/>
	<polygon class="st1" points="8.5,4.3 8.5,4.3 8.6,4.3 8.6,4.4 8.5,4.4 8.5,4.4 8.4,4.4 8.5,4.4 8.5,4.4 8.5,4.3 8.6,4.4 8.6,4.3 	
		"/>
	<polygon class="st1" points="11.3,4.3 11.3,4.3 11.3,4.3 11.4,4.3 11.3,4.3 	"/>
	<polygon class="st1" points="8.7,4.4 8.7,4.4 8.8,4.5 8.9,4.6 8.8,4.6 8.8,4.7 8.7,4.8 8.6,4.8 8.5,4.7 8.5,4.9 8.5,4.9 8.4,4.9 
		8.4,4.8 8.5,4.8 8.5,4.7 8.5,4.6 8.5,4.6 8.6,4.7 8.7,4.7 8.7,4.6 8.6,4.5 8.6,4.4 8.6,4.4 8.8,4.6 8.8,4.6 8.8,4.5 8.7,4.4 	"/>
	<polygon class="st1" points="8.3,4.4 8.3,4.4 8.4,4.5 8.4,4.5 8.3,4.6 8.3,4.5 8.3,4.5 	"/>
	<polygon class="st1" points="11.3,4.4 11.4,4.4 11.4,4.4 11.4,4.5 11.3,4.5 	"/>
	<path class="st506" d="M12.1,4.6L12.1,4.6L12.1,4.6c0,0.1,0.1,0.2,0.1,0.4l0-0.2l0,0c0,0.1,0,0.3,0,0.4l-0.1,0.1l0,0l0-0.2l0,0
		L12,5C12,4.9,12,4.7,12.1,4.6z"/>
	<path class="st507" d="M8,4.7C8,4.8,8,4.9,8,5l0,0.1L8,5C8,4.9,8,4.8,8,4.7z"/>
	<polygon class="st507" points="12,4.9 12.1,4.7 12.1,4.9 12.1,5.1 	"/>
	<polygon class="st506" points="8.1,4.8 8.2,4.7 8.2,4.9 8.1,5 8.1,5 	"/>
	<polygon class="st1" points="9.8,4.8 9.9,4.7 9.9,4.7 9.9,4.7 9.9,4.8 10,4.8 9.9,4.8 9.9,4.9 9.9,5 9.9,5 9.9,4.9 9.9,4.8 
		9.8,4.9 9.8,4.9 9.7,5 9.7,4.9 9.6,5 9.6,4.9 9.6,4.9 9.7,4.9 9.7,4.9 	"/>
	<polygon class="st506" points="11.9,4.7 11.9,4.7 12,4.9 12,5 11.9,5 11.9,4.9 	"/>
	<polygon class="st1" points="10.2,4.7 10.3,4.7 10.3,4.8 10.2,4.8 	"/>
	<polygon class="st507" points="11.9,4.7 12,4.9 12,5 11.9,4.9 	"/>
	<polygon class="st507" points="8.1,4.8 8.2,4.7 8.2,4.9 8.1,5 	"/>
	<polygon class="st1" points="10.4,4.8 10.5,4.8 10.5,4.8 10.4,4.8 10.4,5 10.4,5 10.4,4.9 	"/>
	<path class="st507" d="M7.9,4.8l0,0.2l0,0.2L7.9,5.2C7.9,5.1,7.9,5,7.9,4.8z"/>
	<polygon class="st506" points="11.7,4.9 11.7,4.8 11.9,5 12,5.1 12,5.1 11.9,5.1 	"/>
	<polygon class="st1" points="10.2,4.9 10.2,4.9 10.3,4.9 10.3,4.9 10.3,4.9 10.3,4.9 10.4,4.9 10.3,5 10.2,5 10.2,5 10.1,4.9 
		10.1,5 10.1,4.9 10.1,4.9 10.2,4.9 10.2,4.9 10.2,4.9 	"/>
	<path class="st507" d="M12.1,5.2c0-0.1,0-0.2,0.1-0.3C12.2,5,12.2,5.1,12.1,5.2l0.1,0.1l0,0L12.1,5.2z"/>
	<polygon class="st506" points="8.5,4.9 8.6,4.9 8.6,5.1 8.4,5.1 8.4,5 	"/>
	<path class="st506" d="M7.8,4.9L7.8,4.9c0,0.2,0.1,0.3,0.1,0.5l0,0.1l0,0l0,0l0,0.1l0,0l0.1,0l0.1,0L7.9,5.6l-0.1,0l0,0l0,0l-0.1,0
		l0-0.1c0-0.2,0-0.3,0-0.5l0,0c0,0.1,0,0.2,0.1,0.3C7.7,5.2,7.8,4.9,7.8,4.9z"/>
	<polygon class="st506" points="11.5,4.9 11.6,5 11.7,5.1 11.6,5.1 11.5,5.1 	"/>
	<polygon class="st507" points="11.8,4.9 11.9,5 12,5.1 11.9,5.1 	"/>
	<polygon class="st507" points="8.2,5 8.3,4.9 8.2,5.1 8,5.1 8,5.1 	"/>
	<path class="st506" d="M12.3,4.9L12.3,4.9L12.3,4.9c0,0.1,0,0.3,0,0.4C12.3,5.2,12.4,5.1,12.3,4.9L12.4,5c0,0.1,0,0.3,0,0.4l0,0.1
		l0,0l0,0l0,0l-0.1,0l-0.1-0.1l0.1,0l0.1,0l0.1,0l0-0.2l0,0.1l0,0l0-0.1C12.2,5.2,12.3,5,12.3,4.9z"/>
	<polygon class="st507" points="8.5,5 8.6,4.9 8.5,5.1 8.4,5.1 	"/>
	<path class="st506" d="M11.7,4.9L11.7,4.9l0.1,0.1l0,0.1l0,0.1l0,0l0,0l-0.1,0l0.1,0l0,0l0-0.2l0-0.1l0,0.1l0,0.2l-0.1,0.1l0,0l0,0
		l-0.1,0l0.1,0.1l0.1,0.1l0-0.2l0-0.1l0,0l0,0.2l-0.1,0.1l0,0l-0.1,0l-0.1-0.1l-0.1-0.1l0-0.1l-0.1-0.1v0l0,0
		c-0.1-0.1-0.1-0.1-0.2-0.2l0.1,0.1l0.2,0.1l0-0.1L11.7,4.9z"/>
	<polygon class="st507" points="11.5,4.9 11.6,5 11.6,5.1 11.6,5.1 	"/>
	<path class="st507" d="M7.8,5.3c0-0.1,0-0.2,0-0.4C7.8,5.1,7.8,5.2,7.8,5.3l0.1,0.1l0,0L7.8,5.3z"/>
	<polygon class="st507" points="8.3,5.1 8.4,5 8.4,5.1 8.3,5.3 	"/>
	<polygon class="st507" points="11.7,5 11.8,5.2 11.8,5.3 11.7,5.2 	"/>
	<path class="st507" d="M12.2,5.3c0-0.1,0-0.2,0.1-0.3C12.3,5.1,12.3,5.2,12.2,5.3l0,0.1l0,0L12.2,5.3z"/>
	<polygon class="st507" points="8.5,5.2 8.6,5.1 8.5,5.2 8.4,5.3 	"/>
	<polygon class="st507" points="11.4,5.1 11.7,5.2 11.7,5.3 11.6,5.3 	"/>
	<path class="st507" d="M12.3,5.4c0-0.1,0-0.2,0.1-0.3l0,0.2l0,0.3l0,0.1l0,0L12.3,5.4z"/>
	<path class="st507" d="M7.7,5.5c0-0.1,0-0.2,0-0.4C7.7,5.2,7.7,5.4,7.7,5.5l0.1,0.1l0,0L7.7,5.5z"/>
	<polygon class="st506" points="11.9,5.1 12,5.2 12.1,5.2 12.1,5.3 12,5.3 	"/>
	<polygon class="st507" points="8,5.2 8.2,5.2 8.1,5.3 8,5.3 	"/>
	<polygon class="st507" points="8.2,5.4 8.2,5.2 8.2,5.3 8.3,5.4 8.2,5.4 	"/>
	<polygon class="st507" points="11.9,5.2 12.1,5.2 12.1,5.3 12,5.2 	"/>
	<polygon class="st507" points="11.8,5.2 11.9,5.3 11.9,5.4 11.8,5.4 11.8,5.3 	"/>
	<polygon class="st506" points="12.4,5.2 12.5,5.2 12.5,5.3 12.5,5.2 12.4,5.2 12.4,5.2 12.5,5.4 12.4,5.6 12.5,5.7 12.5,5.6 
		12.5,5.4 12.5,5.3 12.5,5.2 12.5,5.4 12.5,5.6 12.5,5.7 12.4,5.6 12.4,5.5 12.4,5.4 12.4,5.3 	"/>
	<polygon class="st506" points="7.6,5.2 7.6,5.2 7.6,5.2 7.6,5.4 7.6,5.6 7.6,5.7 7.6,5.6 7.6,5.4 7.6,5.2 	"/>
	<polygon class="st507" points="12.4,5.2 12.5,5.2 12.5,5.3 12.5,5.3 12.5,5.4 12.5,5.6 12.5,5.7 12.4,5.6 12.5,5.4 12.4,5.2 	"/>
	<polygon class="st507" points="7.6,5.2 7.6,5.2 7.6,5.2 7.6,5.4 7.6,5.6 7.6,5.7 7.6,5.6 7.6,5.5 7.6,5.4 	"/>
	<polygon class="st507" points="8.3,5.4 8.5,5.3 8.4,5.4 8.3,5.4 	"/>
	<polygon class="st506" points="8,5.3 8.1,5.3 8,5.4 7.9,5.4 7.9,5.4 	"/>
	<polygon class="st507" points="11.6,5.3 11.8,5.4 11.8,5.4 11.7,5.4 	"/>
	<polygon class="st506" points="12,5.3 12.2,5.3 12.2,5.4 12.1,5.4 	"/>
	<polygon class="st507" points="7.9,5.4 8.1,5.3 7.9,5.4 	"/>
	<polygon class="st507" points="12,5.3 12.2,5.4 12.2,5.4 	"/>
	<path class="st506" d="M12.6,5.3L12.6,5.3l0,0.1l0,0.1l0,0.2l0,0.2l0,0.1l0,0.1l0,0l0-0.2l0-0.1C12.5,5.6,12.5,5.5,12.6,5.3
		L12.6,5.3z"/>
	<polygon class="st506" points="7.5,5.3 7.5,5.4 7.5,5.6 7.5,5.7 7.5,5.9 7.5,6 7.5,6 7.5,6 7.4,5.8 7.5,5.6 7.5,5.4 	"/>
	<polygon class="st507" points="8.1,5.5 8.1,5.3 8.2,5.5 8.1,5.6 	"/>
	<polygon class="st507" points="11.9,5.3 12,5.5 11.9,5.6 11.9,5.5 	"/>
	<polygon class="st507" points="12.6,5.3 12.6,5.3 12.6,5.4 12.6,5.6 12.6,5.8 12.6,5.9 12.6,6 12.5,6 12.6,5.8 12.6,5.6 12.6,5.4 	
		"/>
	<polygon class="st507" points="7.5,5.4 7.5,5.3 7.5,5.4 7.5,5.6 7.5,5.7 7.5,5.8 7.5,6 7.5,6 7.5,6 7.5,5.8 7.5,5.6 7.5,5.4 	"/>
	<polygon class="st507" points="8.3,5.5 8.4,5.5 8.3,5.6 8.2,5.6 	"/>
	<polygon class="st507" points="11.7,5.5 11.8,5.5 11.9,5.5 11.9,5.6 11.8,5.6 	"/>
	<polygon class="st506" points="7.4,5.5 7.4,5.5 7.4,5.6 7.4,5.7 7.4,5.8 7.4,5.8 7.3,5.7 7.4,5.6 7.3,5.5 	"/>
	<polygon class="st507" points="7.8,5.5 8,5.5 7.8,5.6 	"/>
	<polygon class="st506" points="12.7,5.5 12.7,5.5 12.7,5.6 12.7,5.8 12.7,5.8 12.7,5.7 12.7,5.6 	"/>
	<polygon class="st507" points="12.1,5.5 12.2,5.5 12.3,5.6 12.2,5.6 	"/>
	<polygon class="st507" points="7.4,5.5 7.4,5.5 7.4,5.6 7.4,5.7 7.4,5.8 7.4,5.8 7.4,5.7 7.4,5.6 	"/>
	<polygon class="st507" points="12.7,5.5 12.7,5.5 12.7,5.6 12.7,5.8 12.7,5.8 12.7,5.7 12.7,5.6 12.7,5.5 	"/>
	<polygon class="st506" points="7.6,5.7 7.8,5.6 7.7,5.8 7.6,5.8 	"/>
	<path class="st506" d="M8,5.7L8,5.7h0.1l0,0.1l0,0l0.1-0.1l0.1,0l0,0.1L8.1,5.9C8,6,7.9,6.1,7.9,6.2C8,6.3,8,6.4,8.1,6.6
		c0,0.1,0,0.3-0.1,0.4l0.1,0L8,7.1l0,0c0.1,0,0.2,0.1,0.2,0.2l0.1,0.2l0,0l0,0.2L8.3,7.9L8.2,7.8l0.1-0.1L8.2,7.6l-0.1,0l0.1,0.1
		l0,0.1l-0.1,0L8.1,7.7l0-0.2l-0.2,0L8,7.6l0,0l0,0l0.2,0.1l0,0.1l0,0l0.1,0.1l0,0.1L8.2,8L8,7.8L7.9,7.7l0,0L8,7.8L8,7.7L7.9,7.6
		l0-0.1l0,0L8,7.6L7.9,7.5c-0.1,0-0.3-0.1-0.4-0.1l0.1,0.2l0-0.1l0,0l0.1,0.2l0,0.1l-0.1,0l0,0l-0.1,0l0.1,0.1l-0.1,0L7.6,8l0,0.1
		l0.2,0.1l0-0.2l0-0.1C7.8,7.8,7.8,7.9,7.8,8l0,0.1l-0.1,0l0,0.1l-0.1,0L7.4,8L7.3,7.9L7.5,8L7.2,7.8l0,0l0.2,0.1L7.2,7.6l0.1,0
		l0.2,0.1L7.3,7.6l0-0.1l0.1,0.1L7.2,7.5L7.2,7.4l0,0l0.1,0L7.1,7.3l0-0.1l0,0c0.1,0.1,0.2,0.1,0.3,0.2l0,0.1l-0.1,0l0.1,0.1l0,0.1
		l0,0l0.1,0l0-0.1l-0.1,0l0,0l0-0.2l0,0l0,0.1l0,0V7.3L7.2,7.3L7.1,7.1L7.1,6.9l0,0l0,0L7.3,7c0.1,0.1,0.2,0.1,0.3,0.1L7.5,6.9
		l0-0.1l0,0l0-0.1l0,0.2L7.4,7l0,0L7.3,7L7.2,6.9L7.2,6.7l0-0.1l0,0l0.1,0.1l0-0.1L7.1,6.5l0,0l0.1,0.2C7.2,6.5,7.1,6.4,7.1,6.3
		l0-0.1l0,0l0.1,0.1c0-0.1-0.1-0.2-0.1-0.3l0,0l0.1,0.2c0-0.1-0.1-0.2-0.1-0.3l0,0l0,0.1l0.1,0.2l0,0.1l-0.1,0l0.1,0.2l-0.1,0
		l0.1,0.2l-0.1,0l0,0l0.1,0.1l0,0.1l-0.1,0l0.1,0.1l0.1-0.2l0,0l0.1,0.1l0.1,0.1l0,0.1h0L7.7,7l0.1-0.2l0,0l0,0.2l-0.1,0l0.2,0L8,7
		L7.9,6.8L7.8,6.6L7.8,6.8l-0.1,0l0,0L7.6,6.7l0-0.3l0,0l0.1,0.2l0.1-0.2l0,0L7.7,6.6L7.6,6.6l0-0.2v0L7.4,6.2l0,0.1l-0.1,0l0-0.1
		l0.1-0.1l0,0l0,0l0.1,0l0.1,0l0-0.2l0,0l0.1,0.2c0-0.1,0-0.2,0-0.3l0-0.1l0,0L8,5.8L8,5.7z"/>
	<polygon class="st506" points="12.3,5.6 12.4,5.7 12.5,5.8 12.4,5.8 12.3,5.7 	"/>
	<polygon class="st507" points="7.7,5.7 7.7,5.6 7.7,5.8 7.6,5.8 	"/>
	<path class="st507" d="M12,5.7L12,5.7L12,5.7l0.1,0.2l0,0l0,0l0.1-0.1l0,0l0,0.1c0,0.1,0,0.2,0,0.3l0,0L12,5.9l-0.2-0.2l0,0l0,0
		l0.1,0.1l0,0L12,5.7z"/>
	<polygon class="st507" points="12.3,5.7 12.4,5.7 12.5,5.8 12.4,5.8 12.3,5.7 	"/>
	<path class="st507" d="M8,5.7L8,5.7L8,5.7l0.1,0.1l0,0l0.1-0.1l0,0l0,0L8,6L7.9,6.1l0,0c0-0.1,0-0.2,0-0.3l0-0.1l0,0L8,5.8l0,0l0,0
		L8,5.7z"/>
	<path class="st506" d="M12.7,6l0.1-0.2c0,0.1,0,0.2,0,0.3l0,0.1l-0.1,0L12.7,6z"/>
	<polygon class="st506" points="7.3,5.8 7.3,5.8 7.4,6.1 7.3,6.2 7.3,6.1 7.3,5.9 	"/>
	<polygon class="st507" points="12.7,6 12.8,5.9 12.8,6.1 12.8,6.1 12.7,6.1 	"/>
	<polygon class="st507" points="7.3,5.9 7.4,6.1 7.3,6.1 7.3,6.1 	"/>
	<polygon class="st506" points="8.2,5.9 8.2,5.9 8.2,5.9 8.1,6.1 8,6.2 8,6.2 7.9,6.2 8,6.1 8,6 8.1,5.9 	"/>
	<polygon class="st506" points="11.8,5.9 11.8,5.9 11.9,5.9 11.9,5.9 11.9,5.9 11.9,5.9 12.1,6 12.1,6.1 12.1,6.2 12.1,6.2 
		12.1,6.2 12,6.1 11.9,5.9 11.9,5.9 11.9,6.1 12,6.2 12,6.3 12,6.3 12,6.3 11.9,6.1 11.9,6.1 11.8,5.9 	"/>
	<polygon class="st507" points="11.8,5.9 11.9,5.9 11.9,6.1 12,6.2 12,6.3 12,6.3 11.9,6.2 11.9,6 11.8,5.9 	"/>
	<polygon class="st507" points="11.9,5.9 11.9,5.9 12.1,6 12.1,6.2 12.1,6.2 12.1,6.2 12,6.1 11.9,5.9 	"/>
	<polygon class="st507" points="8.1,5.9 8.2,5.9 8.2,5.9 8,6.1 8,6.2 8,6.2 8,6.1 8,6 	"/>
	<polygon class="st506" points="8.2,5.9 8.3,5.9 8.3,5.9 8.3,6 8.2,6.1 8.1,6.3 8.1,6.3 8,6.3 8.1,6.2 8.1,6.1 8.2,6.1 	"/>
	<polygon class="st507" points="8.3,5.9 8.3,5.9 8.3,6 8.2,6.1 8.2,6.2 8.1,6.3 8.1,6.3 8.1,6.2 8.2,6.1 8.2,5.9 	"/>
	<path class="st507" d="M7.7,6.1l0-0.2L7.8,6C7.9,6.1,8,6.3,8,6.5l0,0.2C8.1,6.8,8,6.9,8,7l0,0l0.1-0.1L8,7.1l-0.1,0L8,7l0,0
		c0-0.1,0-0.2-0.1-0.3L7.8,6.6l0-0.1l0,0l0,0.1l0-0.1l0-0.2h0l0,0.1L7.4,6.1l0,0L7.7,6.1L7.7,6.1z"/>
	<path class="st507" d="M12.3,5.9L12.3,5.9L12.3,5.9l0.1,0.1l0,0l0.2,0l0,0l-0.2,0.2l0-0.1l-0.1,0.2l0,0.1l0-0.1l0,0v0.1l0,0l0,0.1
		L12.1,7C12,6.9,12,6.8,12,6.7L12,6.5C12.1,6.3,12.2,6.1,12.3,5.9z"/>
	<path class="st506" d="M12.9,5.9L12.9,5.9c0,0.1,0,0.2,0,0.3l0.1-0.1l0-0.1l0,0c0,0.1,0,0.2-0.1,0.3L13,6.3l0,0l0,0.1
		c0,0.1-0.1,0.2-0.1,0.3l-0.1,0.1l0.1-0.2l-0.1,0l0,0l0,0l-0.1-0.1l0-0.2l0,0l0,0.1l0.1,0.1l0.1-0.1l-0.1,0l0-0.1L12.9,5.9z"/>
	<polygon class="st507" points="12.8,6.1 12.9,6 12.8,6.2 12.8,6.3 12.8,6.3 	"/>
	<polygon class="st507" points="7.2,6 7.3,6.2 7.3,6.3 7.2,6.2 	"/>
	<polygon class="st507" points="12.6,6.1 12.7,6.2 12.7,6.3 12.7,6.2 	"/>
	<polygon class="st507" points="7.4,6.2 7.4,6.1 7.4,6.3 	"/>
	<polygon class="st507" points="7.1,6.1 7.3,6.3 7.3,6.5 7.2,6.4 	"/>
	<path class="st507" d="M13,6.1c0,0.1,0,0.2-0.1,0.3l-0.1,0.1l0,0l0-0.1l0.1-0.1L13,6.1z"/>
	<polygon class="st506" points="7.4,6.3 7.5,6.2 7.5,6.3 7.5,6.4 7.3,6.5 7.4,6.4 	"/>
	<polygon class="st507" points="7.4,6.4 7.4,6.3 7.4,6.4 7.4,6.5 	"/>
	<polygon class="st507" points="12.6,6.3 12.7,6.3 12.7,6.4 12.7,6.5 12.6,6.4 	"/>
	<polygon class="st507" points="12.8,6.5 13,6.3 12.9,6.6 12.8,6.6 	"/>
	<polygon class="st507" points="7.1,6.3 7.3,6.5 7.3,6.6 7.3,6.6 7.2,6.5 	"/>
	<polygon class="st507" points="7.6,6.5 7.7,6.3 7.7,6.5 7.7,6.6 7.6,6.6 	"/>
	<polygon class="st507" points="12.4,6.4 12.4,6.5 12.4,6.6 12.4,6.6 12.4,6.5 	"/>
	<polygon class="st506" points="12.6,6.4 12.6,6.4 12.6,6.5 12.7,6.6 12.7,6.6 12.6,6.6 12.7,6.7 12.7,6.8 12.6,6.8 12.6,6.7 
		12.6,6.6 12.6,6.6 	"/>
	<polygon class="st506" points="7.4,6.5 7.5,6.4 7.5,6.5 7.4,6.6 7.4,6.6 7.3,6.6 	"/>
	<polygon class="st507" points="12.6,6.4 12.7,6.5 12.7,6.6 12.7,6.6 12.6,6.6 	"/>
	<polygon class="st507" points="7.4,6.6 7.5,6.4 7.4,6.6 7.4,6.6 	"/>
	<polygon class="st506" points="12.9,6.5 13,6.4 13,6.4 12.9,6.7 13,6.6 13,6.7 13,6.6 13.1,6.7 13,6.8 13,6.8 12.9,6.8 12.9,6.8 
		12.8,7 12.7,7 12.7,7 12.6,7 12.6,6.8 12.6,6.7 12.6,6.8 12.7,6.9 12.7,6.9 12.8,6.8 12.7,6.8 12.8,6.7 	"/>
	<polygon class="st507" points="13,6.5 13,6.5 13,6.6 12.8,6.8 12.8,6.8 12.8,6.7 	"/>
	<polygon class="st507" points="7.2,6.7 7.1,6.5 7.3,6.7 7.3,6.8 7.3,6.8 	"/>
	<polygon class="st507" points="12.3,6.5 12.3,6.6 12.4,6.7 12.4,6.8 12.3,6.7 	"/>
	<polygon class="st507" points="7.6,6.5 7.6,6.6 7.7,6.8 7.6,6.7 	"/>
	<polygon class="st507" points="7.7,6.7 7.8,6.5 7.8,6.7 7.7,6.8 	"/>
	<polygon class="st507" points="12.5,6.5 12.5,6.7 12.4,6.8 12.4,6.7 	"/>
	<polygon class="st506" points="7.4,6.6 7.5,6.5 7.5,6.6 7.5,6.8 7.4,6.8 7.3,6.7 	"/>
	<polygon class="st507" points="12.6,6.6 12.6,6.7 12.7,6.7 12.7,6.8 12.6,6.8 	"/>
	<polygon class="st506" points="7,6.6 7.1,6.7 7.1,6.8 7.2,6.8 7.2,6.9 7.1,6.8 7.1,6.7 7,6.7 	"/>
	<polygon class="st507" points="7.4,6.7 7.5,6.6 7.5,6.8 7.4,6.8 	"/>
	<polygon class="st507" points="7.1,6.6 7.1,6.7 7.1,6.8 7.2,6.8 7.1,6.8 7.1,6.6 	"/>
	<polygon class="st507" points="13,6.6 13,6.7 13,6.7 13,6.8 12.9,6.8 	"/>
	<polygon class="st506" points="12.2,6.8 12.3,6.7 12.3,6.8 12.4,6.9 12.4,7 12.3,6.9 	"/>
	<polygon class="st506" points="7.8,6.8 7.8,6.7 7.8,6.8 7.8,6.9 7.7,6.9 7.7,6.9 	"/>
	<polygon class="st507" points="12.8,6.9 12.9,6.7 12.8,6.9 12.7,7 	"/>
	<polygon class="st507" points="12.3,6.7 12.4,6.9 12.3,6.9 12.3,6.9 	"/>
	<polygon class="st507" points="7.3,6.9 7.2,6.7 7.3,6.8 7.3,6.9 7.4,7 	"/>
	<polygon class="st507" points="7.8,6.7 7.8,6.9 7.7,6.9 7.7,6.9 	"/>
	<polygon class="st507" points="12.4,6.9 12.5,6.8 12.4,6.9 	"/>
	<polygon class="st507" points="7.5,6.8 7.6,6.8 7.7,6.9 7.7,6.9 7.6,6.9 	"/>
	<polygon class="st507" points="12.6,6.8 12.6,6.8 12.7,6.9 12.7,7 12.6,6.9 	"/>
	<polygon class="st507" points="7.4,6.9 7.5,6.8 7.5,6.9 7.4,7 	"/>
	<path class="st507" d="M7.1,6.9L7.1,6.9L7.1,6.9L7.3,7c0.1,0,0.2,0.1,0.3,0.1c0.1,0,0.3,0,0.4,0l0.1,0l0.2,0.2l0.1,0.2l0,0.1
		L8.2,7.5l-0.1,0h0c-0.2,0-0.3-0.1-0.5-0.1l-0.1,0l0,0l0,0l0,0l0-0.1l0,0.1L7.2,7.2L7.1,7L7.1,6.9z"/>
	<path class="st507" d="M13,6.9L13,6.9L13,6.9l-0.1,0.3l-0.1,0.1l-0.1,0.1l0-0.1l0,0l-0.1,0.1c-0.1,0-0.3,0.1-0.4,0.1l0,0l0,0
		l-0.2,0l0,0l0,0.1l-0.2,0.1l0,0l0-0.1l0.1-0.2l0.2-0.1c0.2,0,0.4,0,0.6-0.1L13,6.9z"/>
	<polygon class="st507" points="7.5,6.9 7.7,7 7.7,7.1 7.6,7.1 	"/>
	<polygon class="st507" points="12.4,7 12.5,6.9 12.5,7.1 12.4,7.1 	"/>
	<polygon class="st507" points="7.7,7 7.8,6.9 7.8,7.1 7.7,7.1 	"/>
	<polygon class="st507" points="12.2,6.9 12.3,7 12.3,7.1 12.3,7.1 12.3,7.1 	"/>
	<polygon class="st507" points="12,6.9 12.1,7.1 12.1,7.1 	"/>
	<polygon class="st508" points="7.7,7.1 7.7,7.1 7.7,7.1 	"/>
	<polygon class="st507" points="12.7,7.4 13,7.2 12.8,7.4 12.7,7.5 	"/>
	<polygon class="st507" points="7.1,7.2 7.3,7.4 7.4,7.5 7.3,7.4 	"/>
	<polygon class="st507" points="12.7,7.2 12.7,7.4 12.6,7.4 	"/>
	<polygon class="st507" points="7.4,7.3 7.5,7.4 7.4,7.5 7.4,7.4 	"/>
	<polygon class="st507" points="7.5,7.4 7.6,7.5 7.6,7.6 7.5,7.6 7.5,7.5 	"/>
	<polygon class="st507" points="12.5,7.5 12.6,7.4 12.6,7.6 12.6,7.6 12.5,7.6 	"/>
	<polygon class="st507" points="12.5,7.4 12.5,7.6 12.5,7.7 12.5,7.7 12.4,7.7 	"/>
	<polygon class="st507" points="12.7,7.5 12.9,7.5 12.7,7.6 12.6,7.6 12.6,7.6 	"/>
	<polygon class="st507" points="7.2,7.5 7.4,7.5 7.5,7.6 7.5,7.6 7.4,7.6 	"/>
	<polygon class="st507" points="7.6,7.5 7.6,7.7 7.6,7.7 7.6,7.6 	"/>
	<polygon class="st507" points="12.2,7.5 12.1,7.6 12,7.6 12,7.6 	"/>
	<polygon class="st507" points="7.9,7.5 8,7.6 8.1,7.6 8,7.6 	"/>
	<polygon class="st507" points="11.9,7.6 12,7.5 11.9,7.7 11.8,7.7 	"/>
	<polygon class="st507" points="8.1,7.5 8.2,7.6 8.2,7.7 8.2,7.7 8.1,7.7 	"/>
	<path class="st507" d="M12.6,7.7c0.1,0,0.2-0.1,0.3-0.1L12.6,7.7L12.6,7.7L12.6,7.7L12.6,7.7z"/>
	<polygon class="st507" points="7.9,7.6 8.1,7.7 8.2,7.8 8.2,7.8 8.1,7.8 	"/>
	<polygon class="st507" points="12,7.7 12.2,7.6 12,7.8 11.9,7.8 11.9,7.8 11.9,7.8 	"/>
	<polygon class="st507" points="7.5,7.8 7.3,7.6 7.5,7.7 7.6,7.7 7.6,7.8 	"/>
	<polygon class="st507" points="8.3,7.6 8.3,7.8 8.3,7.8 8.2,7.8 8.3,7.7 	"/>
	<polygon class="st506" points="7.7,7.7 7.7,7.6 7.7,7.7 7.7,7.9 7.6,7.9 7.6,7.9 7.6,7.8 	"/>
	<path class="st506" d="M12.8,7.6L12.8,7.6L12.8,7.6l-0.1,0.2L12.8,7.6l0,0.1L12.6,8l0.1,0l0,0l0,0.1l-0.2,0.2l-0.1,0l0,0l-0.1,0
		l0-0.2l0.1-0.2c0,0.1,0.1,0.2,0,0.3L12.5,8l0-0.1l0.1-0.1l0,0l0-0.1l0.2-0.1L12.8,7.6z"/>
	<polygon class="st506" points="7.8,7.6 7.9,7.8 8,7.9 8,8.1 7.9,8.1 7.9,7.9 	"/>
	<polygon class="st507" points="11.8,7.8 11.8,7.6 11.8,7.7 11.8,7.8 11.8,7.9 	"/>
	<polygon class="st507" points="7.7,7.7 7.7,7.9 7.7,7.9 7.6,7.9 7.6,7.8 	"/>
	<polygon class="st507" points="12.4,7.9 12.4,7.7 12.5,7.9 12.5,7.9 	"/>
	<polygon class="st507" points="7.2,7.7 7.5,7.8 7.5,7.8 7.5,7.9 7.5,7.9 7.3,7.8 	"/>
	<polygon class="st507" points="7.8,7.7 7.9,7.9 8,8.1 7.9,7.9 7.9,7.8 	"/>
	<polygon class="st507" points="12.6,7.8 12.8,7.7 12.6,7.8 12.6,7.9 12.6,7.8 	"/>
	<polygon class="st507" points="12.1,7.8 12.2,7.7 12.1,7.8 12.1,8 12,8.1 12.1,7.9 	"/>
	<polygon class="st507" points="8,7.7 8.2,7.9 8.3,8 8.2,8 8,7.8 	"/>
	<polygon class="st506" points="8.4,7.7 8.4,7.7 8.4,7.9 8.4,8 8.3,8 8.3,7.9 	"/>
	<polygon class="st507" points="7.7,7.8 7.8,8 7.8,8.1 7.7,8.1 7.7,8 	"/>
	<polygon class="st507" points="12.6,7.9 12.8,7.8 12.6,7.9 12.5,8 12.5,7.9 	"/>
	<polygon class="st507" points="12.3,7.9 12.3,7.8 12.4,8 12.4,8.1 12.3,8.1 12.3,8.1 	"/>
	<polygon class="st507" points="7.3,7.8 7.5,7.9 7.6,8 7.5,8 7.5,8 	"/>
	<polygon class="st507" points="8.4,7.8 8.4,8 8.3,8 8.3,7.9 	"/>
	<polygon class="st507" points="11.9,7.9 12.1,7.8 11.9,8 11.8,8 	"/>
	<polygon class="st507" points="11.7,7.8 11.7,7.9 11.8,8 11.7,8 11.7,7.9 	"/>
	<polygon class="st506" points="8,7.8 8,7.9 8.1,8 8.1,8.1 8.1,8.2 8.1,8.2 8,8 	"/>
	<polygon class="st507" points="12.1,7.8 12,8 12,8.2 11.9,8.2 11.9,8.1 12,8 	"/>
	<polygon class="st507" points="8,8 8,7.9 8.1,8 8.1,8.1 8.1,8.2 8.1,8.2 	"/>
	<path class="st506" d="M12.2,7.9L12.2,7.9L12.2,7.9c0,0.1,0,0.2,0,0.3l0.2-0.1l0.1-0.1l0,0l0,0.1l-0.1,0.1l0.1-0.1l-0.1,0.1
		l-0.1,0.1l0,0l0,0l-0.2,0l0-0.1h0l0-0.1C12.1,8.1,12.2,8,12.2,7.9z"/>
	<polygon class="st506" points="8.4,7.9 8.5,7.9 8.5,8.1 8.4,8.1 8.4,8.1 8.4,8 	"/>
	<polygon class="st507" points="11.6,8.1 11.6,7.9 11.7,8 11.7,8.1 11.7,8.1 	"/>
	<polygon class="st507" points="8.5,7.9 8.5,8.1 8.4,8.1 8.4,8.1 8.4,8.1 	"/>
	<polygon class="st506" points="7.8,7.9 7.9,8.1 8,8.2 7.9,8.3 7.9,8.3 7.7,8.3 7.7,8.4 7.7,8.4 7.5,8.3 7.5,8.2 7.7,8.3 7.5,8.1 
		7.5,8.1 7.5,8.1 7.7,8.2 7.9,8.2 7.8,8.1 	"/>
	<polygon class="st506" points="8.1,7.9 8.1,8 8.3,8.1 8.4,8.1 8.3,8.2 8.2,8.1 	"/>
	<polygon class="st507" points="12.2,7.9 12.2,8.1 12.2,8.2 12.2,8.3 12.1,8.2 	"/>
	<path class="st507" d="M7.4,8L7.6,8l0.1,0.1l0,0.1l-0.1,0C7.5,8.1,7.4,8,7.4,8z"/>
	<path class="st506" d="M8.5,8l0,0.2l0,0c0.1,0,0.2,0,0.3,0.1L9,8.4l0,0l-0.1,0l0,0.1l0,0.1l-0.1,0l0-0.2l-0.1,0l0,0.1l-0.1,0
		L8.6,8.4c-0.1,0-0.2,0.1-0.3,0.2L8.2,8.6l0.1,0.1l0,0.1l-0.1,0L8.2,8.6c-0.1,0-0.2,0-0.3,0c-0.1,0-0.2-0.1-0.2-0.2L7.5,8.4l0,0
		c0.1,0,0.3,0,0.4,0c0.1,0,0.2-0.1,0.4-0.1l0.2-0.1l0-0.1L8.5,8z"/>
	<polygon class="st507" points="12.4,8.1 12.7,8 12.5,8.1 12.4,8.1 12.4,8.1 	"/>
	<polygon class="st507" points="8.1,8 8.2,8 8.3,8.1 8.3,8.1 8.3,8.2 8.2,8.1 	"/>
	<polygon class="st507" points="7.9,8 7.9,8.2 7.9,8.2 7.9,8.3 7.9,8.2 7.9,8.1 	"/>
	<polygon class="st507" points="8.5,8.1 8.5,8 8.6,8.1 8.5,8.1 	"/>
	<polygon class="st507" points="11.8,8.1 11.9,8 11.9,8.1 11.8,8.1 11.7,8.1 	"/>
	<polygon class="st507" points="11.5,8 11.6,8.1 11.6,8.2 11.5,8.1 	"/>
	<polygon class="st507" points="12.4,8.2 12.6,8.1 12.4,8.3 12.3,8.3 12.2,8.3 12.2,8.3 	"/>
	<polygon class="st507" points="7.5,8.1 7.7,8.2 7.8,8.2 7.9,8.3 7.8,8.3 7.7,8.3 	"/>
	<path class="st507" d="M8.3,8.2c0.1,0,0.2-0.1,0.3,0c0.1,0,0.2,0.1,0.3,0.1L9,8.4l-0.1,0L8.8,8.3l0,0.1l-0.1,0l-0.1,0l0,0.1
		C8.5,8.5,8.4,8.5,8.3,8.6C8.2,8.6,8.1,8.6,8,8.7l-0.2,0L7.6,8.4L7.5,8.4c0.1,0,0.2,0,0.4,0C8.1,8.3,8.2,8.3,8.3,8.2z"/>
	<path class="st507" d="M11.3,8.2c0.1,0,0.2-0.1,0.3,0c0.2,0,0.4,0.2,0.5,0.2l0.1,0l0,0v0l0.3,0l-0.2,0.2l-0.2,0.1
		c-0.1,0-0.2,0-0.3,0l0-0.1l0,0.1l-0.2-0.1l-0.2-0.1l0-0.1l-0.1,0.1l-0.1,0l0-0.1h0l0,0.1l-0.1,0l0.1-0.1L11.3,8.2z"/>
	<polygon class="st1" points="9.9,8.2 9.9,8.3 10,8.2 10,8.2 10,8.3 9.9,8.3 9.9,8.5 9.9,8.5 9.9,8.3 9.9,8.3 	"/>
	<polygon class="st1" points="9.7,8.3 9.7,8.2 9.8,8.4 9.8,8.5 9.7,8.5 9.7,8.3 	"/>
	<polygon class="st1" points="10.3,8.2 10.3,8.2 10.4,8.3 10.4,8.4 10.4,8.5 10.3,8.3 10.3,8.5 10.2,8.5 10.2,8.4 	"/>
	<polygon class="st507" points="12.4,8.3 12.5,8.2 12.3,8.4 	"/>
	<polygon class="st507" points="7.5,8.3 7.7,8.3 7.7,8.4 7.7,8.3 	"/>
	<path class="st1" d="M10.2,8.4l0-0.1l-0.1,0l0,0.1l0,0.1L10.2,8.4l0,0.1L10.2,8.4L10.2,8.4z M10.1,8.3L10.1,8.3L10.1,8.3L10.1,8.3z
		"/>
	<polygon class="st507" points="11.3,8.4 11.4,8.3 11.4,8.5 11.3,8.5 	"/>
	<polygon class="st507" points="8.6,8.3 8.8,8.4 8.8,8.5 8.7,8.5 	"/>
	<polygon class="st507" points="8.8,8.3 8.9,8.5 8.8,8.5 8.8,8.5 	"/>
	<polygon class="st507" points="11.2,8.5 11.2,8.4 11.3,8.5 11.2,8.6 11.2,8.6 	"/>
	<path class="st1" d="M9.2,8.4L9.2,8.4l0.2,0.2l0.1,0.2l0,0C9.4,8.8,9.4,8.7,9.4,8.6L9.2,8.4L9.2,8.4z"/>
	<path class="st1" d="M9.4,8.4L9.4,8.4l0.2,0.2l0.1,0.2l0,0.1l-0.1,0L9.5,8.6C9.5,8.5,9.4,8.5,9.4,8.4z"/>
	<path class="st1" d="M10.7,8.4L10.7,8.4c0,0.1-0.1,0.1-0.1,0.2c0,0.1-0.1,0.2-0.2,0.3l0-0.1l0.1-0.2C10.5,8.5,10.6,8.5,10.7,8.4z"
		/>
	<path class="st1" d="M10.7,8.6c0-0.1,0.1-0.2,0.2-0.3l0,0L10.7,8.6L10.7,8.6l-0.1,0.2l-0.1,0l0-0.1L10.7,8.6z"/>
	<polygon class="st506" points="8.9,8.4 9,8.5 9,8.7 8.9,8.7 8.9,8.7 8.9,8.5 	"/>
	<polygon class="st507" points="9,8.4 9,8.6 9,8.7 8.9,8.7 8.9,8.6 	"/>
	<polygon class="st507" points="11.1,8.6 11.1,8.4 11.1,8.6 11.1,8.7 11.1,8.7 	"/>
	<polygon class="st506" points="8.5,8.5 8.6,8.5 8.8,8.5 8.8,8.6 8.7,8.6 	"/>
	<polygon class="st507" points="11.3,8.5 11.5,8.5 11.4,8.6 11.3,8.6 	"/>
	<polygon class="st507" points="8.6,8.5 8.7,8.5 8.8,8.5 8.8,8.6 8.7,8.6 	"/>
	<polygon class="st1" points="9.8,8.5 9.8,8.6 9.8,8.7 9.8,8.7 9.7,8.7 9.7,8.7 9.7,8.6 9.7,8.6 	"/>
	<polygon class="st1" points="10.3,8.6 10.3,8.6 10.4,8.6 10.4,8.6 10.4,8.7 10.4,8.7 10.3,8.7 10.3,8.7 	"/>
	<polygon class="st1" points="9.9,8.6 9.9,8.6 10,8.6 10,8.6 10,8.7 10,8.7 9.9,8.7 9.9,8.7 	"/>
	<polygon class="st1" points="10.1,8.6 10.2,8.6 10.2,8.7 10.2,8.7 10.1,8.7 10.1,8.7 10.1,8.6 	"/>
	<polygon class="st507" points="11,8.7 11,8.6 11,8.8 11,8.8 11,8.8 	"/>
	<polygon class="st507" points="9.1,8.6 9.1,8.8 9.1,8.8 9,8.8 9.1,8.7 	"/>
	<polygon class="st507" points="11.9,8.6 11.9,8.6 11.8,8.8 11.8,8.8 11.7,8.8 11.9,8.7 	"/>
	<polygon class="st506" points="8.6,8.6 8.8,8.6 8.9,8.6 8.9,8.7 8.8,8.7 	"/>
	<polygon class="st507" points="8.6,8.6 8.8,8.7 8.9,8.7 8.9,8.7 8.8,8.7 	"/>
	<polygon class="st506" points="7.8,8.7 8,8.7 8.1,8.7 8.2,8.8 8.1,8.8 8,8.8 7.9,8.7 	"/>
	<polygon class="st507" points="8.2,8.6 8.3,8.7 8.3,8.8 8.3,8.8 8.2,8.8 	"/>
	<polygon class="st506" points="8.4,8.6 8.5,8.7 8.6,8.8 8.7,8.9 8.6,9 8.6,8.9 8.5,8.7 	"/>
	<polygon class="st507" points="11.3,8.7 11.4,8.6 11.2,8.7 11.2,8.7 11.2,8.7 	"/>
	<polygon class="st506" points="8.3,8.7 8.3,8.6 8.5,8.8 8.5,8.9 8.5,8.9 8.4,8.9 	"/>
	<polygon class="st506" points="12.2,8.7 12.3,8.7 12.2,8.7 12.1,8.8 12,8.8 11.9,8.8 11.9,8.7 12,8.7 	"/>
	<polygon class="st507" points="7.8,8.7 8,8.7 8.1,8.7 8.1,8.8 8,8.8 	"/>
	<polygon class="st507" points="12,8.7 12.2,8.7 12.1,8.8 12,8.8 11.9,8.8 	"/>
	<path class="st507" d="M8.6,8.7l0.2,0.2L8.9,9l0,0L8.8,9C8.7,8.9,8.6,8.8,8.6,8.7z"/>
	<polygon class="st507" points="9.1,8.7 9.2,8.7 9.2,8.8 9.1,8.8 	"/>
	<polygon class="st507" points="10.9,8.7 10.9,8.7 10.9,8.7 10.9,8.8 10.9,8.8 	"/>
	<polygon class="st507" points="11.2,8.9 11.5,8.7 11.3,8.9 11.2,9 11.2,9 	"/>
	<polygon class="st507" points="11.6,8.8 11.7,8.7 11.7,8.9 11.6,8.9 11.6,8.9 	"/>
	<polygon class="st507" points="8.4,8.7 8.5,8.8 8.5,8.9 8.5,8.9 8.4,8.8 	"/>
	<polygon class="st507" points="8.5,8.7 8.6,8.8 8.7,8.9 8.6,9 8.6,8.9 8.6,8.9 	"/>
	<polygon class="st507" points="11.6,8.7 11.5,8.9 11.4,9 11.4,8.9 11.5,8.8 	"/>
	<polygon class="st507" points="8.7,8.8 8.9,8.8 9,8.8 9,8.9 9,8.9 8.8,8.8 	"/>
	<polygon class="st1" points="9.7,8.8 9.7,8.8 9.8,8.9 9.7,8.9 	"/>
	<polygon class="st1" points="10.3,8.8 10.4,8.8 10.3,8.9 10.3,8.9 	"/>
	<polygon class="st507" points="11.1,8.8 11.3,8.8 11.2,8.9 11.1,8.9 11.1,8.8 	"/>
	<polygon class="st1" points="9.8,8.8 9.8,8.8 10,8.9 10,8.9 9.9,8.9 	"/>
	<polygon class="st1" points="10.2,8.8 10.3,8.8 10.3,8.9 10.1,8.9 10,8.9 10.1,8.9 	"/>
	<path class="st506" d="M7.9,8.8l0.2,0l0.2,0l0,0.1l0,0l0.2,0l0,0l0,0l0.1,0l0,0l0,0l-0.1,0c-0.1,0-0.2,0-0.3,0l0,0l0.2,0
		C8.3,9,8.2,9,8.1,9l0,0l0.2,0L7.9,8.8L7.9,8.8z"/>
	<polygon class="st507" points="8,8.9 8.2,8.9 8.3,8.9 8.3,8.9 8.3,8.9 8.1,8.9 	"/>
	<path class="st507" d="M11.8,8.9c0.1,0,0.2,0,0.3,0L11.8,8.9L11.8,8.9L11.8,8.9L11.8,8.9z"/>
	<path class="st506" d="M10.9,8.9L10.9,8.9L10.9,8.9L10.9,8.9L10.9,8.9C11,9,11.2,9.1,11.3,9.2l0,0l0,0l0,0l0,0
		c-0.1,0-0.2,0.1-0.4,0.1c-0.2,0.1-0.4,0.1-0.6,0.1c-0.1,0-0.2,0-0.3,0l-0.2,0c-0.2,0-0.4,0-0.6-0.1C9,9.4,8.9,9.3,8.8,9.3l0,0l0,0
		l0,0l0,0l0,0C8.9,9.1,9,9,9.1,8.9l0,0l0,0l0.1,0l0,0l0,0C9.5,9,9.7,9.1,10,9.1l0.1,0c0.2,0,0.4-0.1,0.6-0.1L10.9,8.9L10.9,8.9
		L10.9,8.9L10.9,8.9L10.9,8.9l-0.2,0.1C10.5,9,10.3,9,10.1,9L10,9C9.7,9,9.5,9,9.2,8.9l0,0l-0.1,0l0,0l0,0C9,9,8.9,9.1,8.7,9.2l0,0
		l0,0.1l0,0l0,0C8.9,9.3,9,9.4,9.2,9.4c0.2,0.1,0.4,0.1,0.6,0.1l0.2,0c0.1,0,0.2,0,0.3,0c0.2,0,0.4,0,0.6-0.1c0.1,0,0.2-0.1,0.4-0.1
		l0,0l0,0l0,0l-0.1,0C11.2,9.1,11,9,10.9,8.9L10.9,8.9L10.9,8.9L10.9,8.9L10.9,8.9L10.9,8.9z"/>
	<polygon class="st507" points="8.9,8.9 9,8.9 9,9 	"/>
	<polygon class="st507" points="11.1,8.9 11.2,8.9 11.1,9 	"/>
	<polygon class="st507" points="8.3,9 8.4,8.9 8.5,9 8.4,9 8.2,9 8.2,9 8.2,9 	"/>
	<polygon class="st507" points="11.6,9 11.7,8.9 11.9,9 11.7,9 11.6,9 	"/>
	<polygon class="st505" points="10.8,9.1 10.8,9 11,9.2 11,9.2 11,9.3 11,9.3 10.9,9.1 	"/>
	<polygon class="st505" points="10.6,9.1 10.6,9 10.7,9 10.7,9.1 	"/>
	<polygon class="st507" points="8.5,9 8.6,9 8.6,9 8.5,9.1 8.3,9.1 	"/>
	<polygon class="st507" points="11.4,9 11.5,9 11.6,9 11.8,9 11.5,9.1 	"/>
	<polygon class="st507" points="8.7,9.1 8.8,9 8.8,9.1 8.7,9.1 8.5,9.1 	"/>
	<polygon class="st507" points="11.2,9.1 11.3,9.1 11.6,9.1 11.3,9.1 11.2,9.1 	"/>
	<path class="st507" d="M8.1,9.1c0.1,0.1,0.3,0.1,0.4,0.1l0.2,0.1L8.6,9.3c-0.1,0-0.2-0.1-0.3-0.1L8.1,9.1z"/>
	<polygon class="st505" points="10.4,9.1 10.5,9.1 10.5,9.2 10.4,9.1 	"/>
	<path class="st507" d="M11.5,9.2c0.1,0,0.3-0.1,0.4-0.1c-0.1,0.1-0.2,0.1-0.3,0.2l-0.2,0L11.5,9.2L11.5,9.2z"/>
	<polygon class="st505" points="9.5,9.1 9.6,9.1 9.6,9.1 9.5,9.3 9.5,9.3 9.7,9.3 9.7,9.3 9.7,9.2 9.7,9.3 9.8,9.3 9.8,9.3 9.9,9.3 
		9.9,9.3 9.9,9.3 10,9.3 10,9.3 10.1,9.3 10.1,9.3 10.1,9.4 10.1,9.3 10.2,9.3 10.2,9.4 10.3,9.3 10.2,9.3 10.3,9.2 10.3,9.3 
		10.3,9.4 10.2,9.4 10.1,9.4 10,9.4 9.9,9.4 9.8,9.4 9.7,9.4 9.7,9.4 9.7,9.4 9.5,9.4 9.4,9.3 9.4,9.3 9.5,9.1 	"/>
	<polygon class="st505" points="9.3,9.1 9.4,9.1 9.4,9.1 9.4,9.1 9.3,9.1 9.3,9.1 9.3,9.1 	"/>
	<path class="st505" d="M10.9,9.2L10.9,9.2l-0.2-0.1l0,0l0,0.1L10.9,9.2L10.9,9.2l-0.2,0.1l-0.1,0l0-0.1l-0.1,0l-0.1,0l0,0.1l0,0
		l0,0l0,0l-0.1,0l-0.1-0.2l0,0l0,0l-0.1,0l0,0.1l0.1,0l0,0l0,0l0.1,0.2l0.1,0l0.1-0.1l0.2,0L10.9,9.2L10.9,9.2z M10.7,9.2L10.7,9.2
		L10.7,9.2L10.7,9.2z"/>
	<polygon class="st505" points="9.7,9.2 9.8,9.1 9.8,9.2 9.8,9.2 9.7,9.2 9.7,9.2 9.6,9.2 9.7,9.1 	"/>
	<polygon class="st505" points="9.1,9.2 9.2,9.1 9.2,9.1 9.1,9.2 9.1,9.3 9.3,9.3 9.4,9.3 9.4,9.2 9.5,9.2 9.4,9.3 9.3,9.4 9.1,9.3 
		9,9.2 	"/>
	<path class="st1" d="M10.1,4.5l0,0.1L10,4.5v0.1L9.8,4.5l0,0.1L9.7,4.5l0.1,0.1L9.6,4.5l0.1,0.1L9.6,4.6l0.1,0.1L9.4,4.6l0.3,0.1
		c0.1,0,0.2-0.1,0.4-0.1c0.1,0,0.3,0,0.4,0.1h0l0.3-0.1l-0.3,0.1l0.1-0.1l-0.2,0.1l0.1-0.1l-0.2,0.1l0.1-0.1l-0.1,0.1l0-0.1
		l-0.1,0.1l0-0.1l-0.1,0.1L10.1,4.5z"/>
	<polygon class="st1" points="8.3,4.7 8.4,4.7 8.4,4.7 	"/>
	<path class="st509" d="M10,5.1L10,5.1L10,5.1l0.1,0.1l0.2,0.1l0.1,0.1l0,0.2l0,0.1l-0.1,0.1l0,0c-0.2,0-0.4,0-0.6,0l0,0L9.6,5.8
		l0-0.1l0-0.1l0.1-0.2l0.2-0.1L10,5.1L10,5.1L10,5.1z"/>
	<path class="st1" d="M10,5.2L10,5.2L10,5.2l0.1,0.1l0.1,0l0.2,0.1l0.1,0.2l0,0.2l-0.1,0.1l0,0c-0.2,0-0.4,0-0.6,0l0,0L9.6,5.8
		l0-0.2l0.1-0.2l0.2-0.1L10,5.2L10,5.2z"/>
	<polygon class="st509" points="9.8,5.4 9.9,5.4 9.8,5.4 9.8,5.5 9.7,5.7 9.7,5.7 9.7,5.7 9.7,5.7 9.7,5.6 9.7,5.4 	"/>
	<polygon class="st509" points="10.2,5.4 10.3,5.4 10.4,5.5 10.4,5.7 10.3,5.7 10.3,5.7 10.3,5.5 10.2,5.4 10.2,5.4 	"/>
	<polygon class="st1" points="9.8,5.4 9.8,5.4 9.8,5.4 9.8,5.4 9.7,5.5 9.7,5.7 9.7,5.7 9.7,5.7 9.7,5.7 9.7,5.5 	"/>
	<polygon class="st1" points="10.2,5.4 10.3,5.4 10.3,5.4 10.4,5.6 10.4,5.7 10.3,5.7 10.3,5.7 10.3,5.5 10.2,5.4 	"/>
	<polygon class="st509" points="9.9,5.4 9.9,5.4 9.9,5.5 9.9,5.6 9.9,5.8 9.8,5.8 9.8,5.8 9.8,5.7 9.8,5.5 	"/>
	<polygon class="st509" points="10.1,5.4 10.2,5.4 10.3,5.5 10.3,5.7 10.2,5.8 10.2,5.8 10.2,5.8 10.2,5.6 10.1,5.5 10.1,5.5 	"/>
	<polygon class="st1" points="9.9,5.4 9.9,5.4 9.9,5.5 9.8,5.6 9.8,5.8 9.8,5.8 9.8,5.8 9.8,5.7 9.8,5.5 	"/>
	<polygon class="st1" points="10.1,5.4 10.2,5.4 10.2,5.5 10.3,5.7 10.2,5.8 10.2,5.8 10.2,5.8 10.2,5.7 10.2,5.5 10.2,5.5 	"/>
	<rect x="9.2" y="5.5" class="st1" width="0.2" height="0.1"/>
	<path class="st509" d="M9.2,5.5L9.2,5.5L9.2,5.5L9.2,5.5l0.3-0.1v0.1H9.2z M9.4,5.5L9.4,5.5L9.2,5.5v0.1H9.4z"/>
	<polygon class="st1" points="10.6,5.5 10.6,5.5 10.9,5.5 10.9,5.5 	"/>
	<path class="st509" d="M10.6,5.4l0.3,0l0,0.1h0L10.6,5.4L10.6,5.4L10.6,5.4z M10.6,5.5L10.6,5.5L10.6,5.5z M10.6,5.5L10.6,5.5
		l0.2,0.1l0-0.1H10.6z"/>
	<path class="st1" d="M9.2,5.6h0.2l0,0.4L9.2,6C9.2,6,9.2,5.7,9.2,5.6z"/>
	<path class="st509" d="M9.2,6L9.2,6c0,0,0-0.3,0-0.4v0h0.3V6L9.2,6z M9.4,6l0-0.4H9.2c0,0.1,0,0.4,0,0.4L9.4,6z"/>
	<path class="st1" d="M10.6,5.6h0.2l0,0.2l0,0.2h-0.2C10.6,5.8,10.6,5.7,10.6,5.6z"/>
	<path class="st509" d="M10.9,6h-0.1h-0.1h0v0c0-0.1,0-0.3,0-0.4v0h0l0.2,0h0v0l0,0.2v0L10.9,6L10.9,6L10.9,6L10.9,6z M10.9,6
		L10.9,6l0-0.2v0V5.6h-0.2c0,0.1,0,0.3,0,0.4h0.1H10.9z"/>
	<path class="st509" d="M9.7,5.9L9.7,5.9c0.3,0,0.5,0,0.7,0l0,0l0.2,0.1l0.2,0l0.3,0L11,6.2l-0.1,0.1c-0.2,0-0.4,0-0.6,0l-0.2,0
		c-0.3,0-0.7,0-1,0L9,6.1c0.1,0,0.3,0,0.4,0l0.1,0L9.7,5.9z"/>
	<path class="st1" d="M9.5,6.1l0.2-0.2c0.2,0,0.5,0,0.7,0l0,0L10.6,6l0,0l0.2,0l0.2,0l-0.1,0.1c-0.1,0-0.2,0-0.3,0c-0.5,0-1,0-1.5,0
		l0,0L9,6.1C9.2,6.1,9.3,6.1,9.5,6.1z"/>
	<path class="st509" d="M8.6,6.2L8.6,6.2l0.1-0.1l0,0.1l0,0C8.9,6.5,9,6.8,9.2,7l0,0l0,0l0,0h0.2l0,0.1l0,0.2l-0.3,0V7.1l0,0
		C9.1,7,9,6.9,8.9,6.7l0-0.1L8.7,6.8l0,0.1L8.6,7l0,0.1l0,0.2l0,0.1l0,0L8.3,7.1l0,0l0-0.1l0-0.1l0.1-0.2l0.1-0.1l0.1-0.1l0.1-0.1
		L8.6,6.2L8.6,6.2L8.6,6.2L8.6,6.2z"/>
	<polygon class="st1" points="8.7,6.2 8.7,6.2 8.6,6.3 8.6,6.2 	"/>
	<path class="st509" d="M11.3,6.2L11.3,6.2l0.1,0L11.3,6.2L11.3,6.2L11.3,6.2l0.1,0.2l0.1,0.1l0.1,0.1l0,0.2l0,0.1l0,0.1l0,0.1l0,0
		l-0.1,0.2l0,0l0,0l0-0.1l0-0.2l0-0.1l0-0.1l0,0l-0.2-0.1C11.1,6.8,11,7,10.9,7.2l0,0l0,0.1h-0.3c0-0.1,0-0.2,0-0.3l0.2,0l0.1,0
		l0,0.1L11,7C11.1,6.7,11.2,6.5,11.3,6.2L11.3,6.2L11.3,6.2z"/>
	<polygon class="st1" points="11.4,6.2 11.5,6.2 11.4,6.3 11.4,6.2 	"/>
	<path class="st509" d="M9.1,6.3l0.2,0h0.1l0.1,0l0.1,0l0.2,0l0.1,0l0.1,0l0.3,0l0.1,0h0.1h0.1l0.1,0l0.2,0l0,0c-0.2,0-0.5,0-0.7,0
		l0,0c0.1,0,0.2,0.1,0.3,0.2l0.1,0.2l0,0.2l0,0l0-0.2l0-0.1l-0.1-0.1l-0.1-0.1L10,6.3l-0.2,0c-0.1,0-0.2,0.1-0.2,0.2L9.5,6.7l0,0.1
		l0.1,0c0.1,0,0.2,0,0.3,0l0,0.1l0,0l0.1,0l0.1,0l0,0.1l0.1,0l0,0.1l0.1,0.1v0.1l0,0l0.1,0l0,0.1l0.1,0.1l-0.2,0l0.1,0.2l-0.2,0
		l-0.1-0.2l-0.1,0l0.1,0.2l-0.2,0l0-0.2l-0.2,0l0,0.2c-0.2,0-0.4,0-0.6,0L9,7.8l0.1-0.2l0-0.1c0.1,0,0.2,0,0.3,0l0,0.1l0,0h0.2
		l0-0.1l0,0H9.5c0-0.2,0-0.5,0-0.7l0-0.1l0.1-0.2c0.1-0.1,0.2-0.1,0.3-0.2l-0.2,0C9.5,6.3,9.3,6.3,9.1,6.3L9.1,6.3z"/>
	<path class="st1" d="M8.7,6.3L8.7,6.3C8.8,6.5,9,6.8,9.1,7l0,0.1l0,0C9,6.9,8.9,6.6,8.7,6.3L8.7,6.3z"/>
	<path class="st1" d="M9.2,6.3c0.6,0,1.1,0,1.7,0l0,0c-0.3,0-0.5,0-0.8,0v0c0.1,0,0.2,0,0.3,0.1l0.1,0.2l0,0.2v0.2h0l0-0.2l0-0.1
		l-0.1-0.2c-0.1-0.1-0.2-0.1-0.3-0.2l-0.1,0l-0.2,0L9.7,6.5L9.6,6.6l0,0.1v0.1c0.1,0,0.3,0,0.4,0l0,0.1l0,0l0,0l0.1,0l0,0.1l0.1,0
		l0,0.1l0.1,0.1l0,0.1l0.1,0l0,0.1l0.1,0.1l-0.2,0l0,0l-0.1-0.1l0,0h0l-0.1,0L10,7.4l0,0H9.9l0.1,0.1H9.9l0-0.1l-0.1,0l0,0.1H9.5
		c0-0.2,0-0.5,0-0.7l0-0.1l0.1-0.2l0.2-0.1L10,6.3v0c-0.1,0-0.2,0-0.3,0C9.5,6.3,9.3,6.3,9.2,6.3L9.2,6.3z"/>
	<path class="st1" d="M11.4,6.3L11.4,6.3c-0.2,0.3-0.3,0.6-0.5,0.9l0,0C11.1,6.8,11.2,6.6,11.4,6.3z"/>
	<path class="st1" d="M8.7,6.3L8.7,6.3L8.7,6.3c0.1,0.1,0.2,0.2,0.2,0.3L8.7,6.7l0,0L8.6,6.6L8.5,6.6l0-0.1L8.7,6.3L8.7,6.3z"/>
	<path class="st1" d="M11.4,6.3L11.4,6.3l0.2,0.2l0,0.1l-0.1,0l-0.1,0.1l-0.1-0.1l-0.1-0.1C11.3,6.6,11.3,6.4,11.4,6.3z"/>
	<path class="st509" d="M9.2,6.3h0.3c0,0.1,0,0.2,0,0.4H9.2C9.2,6.6,9.2,6.4,9.2,6.3z"/>
	<path class="st509" d="M10.6,6.3h0.3c0,0.1,0,0.2,0,0.4h-0.3C10.6,6.6,10.6,6.4,10.6,6.3z"/>
	<path class="st1" d="M9.2,6.3l0.2,0c0,0.1,0,0.2,0,0.3l-0.2,0C9.2,6.6,9.2,6.5,9.2,6.3z"/>
	<path class="st1" d="M10.6,6.3l0.2,0c0,0.1,0,0.2,0,0.3h0l0,0l0-0.2l0,0l-0.1,0L10.6,6.3L10.6,6.3l0,0.3l0,0l0,0l0,0l0-0.2l0,0
		l0.1,0l0,0.2l0,0h-0.2C10.6,6.6,10.6,6.5,10.6,6.3z"/>
	<polygon class="st509" points="9.5,6.4 9.7,6.4 9.6,6.4 9.5,6.6 9.5,6.5 	"/>
	<polygon class="st509" points="10.4,6.4 10.6,6.4 10.6,6.5 10.6,6.6 10.5,6.4 	"/>
	<polygon class="st509" points="9.2,6.4 9.3,6.4 9.4,6.4 9.4,6.4 9.4,6.6 9.4,6.7 9.3,6.6 9.3,6.4 9.3,6.4 9.3,6.5 9.3,6.6 9.3,6.6 
		9.2,6.7 9.2,6.6 9.2,6.4 	"/>
	<polygon class="st1" points="10.4,6.4 10.6,6.4 10.6,6.5 10.5,6.4 	"/>
	<polygon class="st1" points="9.5,6.4 9.6,6.4 9.5,6.5 	"/>
	<polygon class="st1" points="9.3,6.4 9.4,6.4 9.4,6.4 9.4,6.6 9.3,6.6 9.3,6.4 9.3,6.4 9.3,6.5 9.3,6.6 9.2,6.6 9.2,6.5 9.2,6.4 	
		"/>
	<polygon class="st1" points="10.7,6.4 10.8,6.4 10.8,6.4 10.8,6.6 10.8,6.6 10.8,6.6 10.8,6.5 10.8,6.4 10.7,6.4 10.7,6.5 
		10.7,6.6 10.7,6.6 10.7,6.6 10.7,6.4 	"/>
	<polygon class="st505" points="8.4,6.6 8.5,6.5 8.5,6.6 8.5,6.6 8.6,6.7 8.7,6.8 8.7,6.8 8.6,7 8.6,7.1 8.6,7.1 8.5,6.9 8.4,6.9 
		8.4,6.9 8.4,6.8 8.4,6.8 	"/>
	<polygon class="st505" points="11.6,6.5 11.7,6.7 11.7,6.8 11.7,6.9 11.6,7 11.5,7 11.5,7.1 11.4,7 11.4,6.8 11.4,6.8 11.5,6.7 
		11.5,6.7 11.6,6.6 	"/>
	<path class="st509" d="M9.1,6.7c0.1,0,0.2,0,0.3,0L9.4,6.8l-0.2,0L9.1,6.7L9.1,6.7z"/>
	<path class="st509" d="M10.6,6.7c0.1,0,0.2,0,0.3,0l0,0.1L10.6,6.7L10.6,6.7z"/>
	<path class="st1" d="M9.2,6.7c0.1,0,0.2,0,0.3,0l0,0.1L9.2,6.7L9.2,6.7z"/>
	<polygon class="st1" points="10.6,6.7 10.9,6.7 10.8,6.8 10.6,6.8 	"/>
	<rect x="10.6" y="6.9" class="st509" width="0.3" height="0.1"/>
	<polygon class="st509" points="9.2,6.9 9.4,6.9 9.4,6.9 9.4,7 9.2,7 	"/>
	<path class="st509" d="M9.5,6.9c0.1,0,0.3,0,0.4,0c0,0.2,0,0.3,0,0.5H9.8V7.2l0-0.1L9.8,7l0,0l0,0L9.7,7.1l0,0.2H9.5l0,0
		C9.5,7.2,9.5,7,9.5,6.9z"/>
	<rect x="9.2" y="6.9" class="st1" width="0.2" height="0.1"/>
	<path class="st509" d="M10,6.9L10,6.9L10,7.1l0.1,0v0.1l0.1,0.1l0,0l0,0.1l0.1,0.1v0.1l-0.2-0.2l0,0l-0.1,0v0C10,7.2,10,7,10,6.9z"
		/>
	<rect x="10.6" y="6.9" class="st1" width="0.2" height="0.1"/>
	<polygon class="st1" points="8.4,6.9 8.4,6.9 8.5,6.9 8.6,7.1 8.6,7.1 8.6,7.3 8.5,7.3 8.5,7.3 8.3,7.1 8.3,7.1 8.4,7 	"/>
	<path class="st1" d="M9.6,6.9c0.1,0,0.2,0,0.4,0c0,0.1,0,0.3,0,0.4H9.8V7.2L9.8,7l0,0l0,0l0,0.1l0,0.1v0.1H9.6
		C9.6,7.2,9.6,7,9.6,6.9z"/>
	<path class="st1" d="M10,6.9L10,6.9l0,0.2l0.1,0l0,0.1l0.1,0.1v0.1l0.1,0.1l0,0.1l-0.2-0.2l-0.1,0C10,7.2,10,7.1,10,6.9z"/>
	<polygon class="st1" points="11.7,7 11.7,6.9 11.7,7 11.7,7.1 11.7,7.1 11.5,7.3 11.5,7.3 11.5,7.3 11.5,7.1 11.5,7 11.6,7 	"/>
	<polygon class="st509" points="10.1,7 10.2,7 10.2,7.1 10.1,7.1 	"/>
	<rect x="10.1" y="7" class="st1" width="0.1" height="0.1"/>
	<rect x="9.2" y="7" class="st1" width="0.2" height="0.3"/>
	<polygon class="st1" points="10.6,7 10.9,7 10.9,7.3 10.9,7.3 10.6,7.3 	"/>
	
		<rect x="9.2" y="7" transform="matrix(1 -2.709503e-03 2.709503e-03 1 -1.930705e-02 2.524788e-02)" class="st509" width="0.2" height="0.2"/>
	<rect x="10.7" y="7" class="st509" width="0.2" height="0.2"/>
	<rect x="9.2" y="7" class="st1" width="0.1" height="0.1"/>
	<rect x="9.3" y="7" width="0" height="0.1"/>
	<rect x="9.3" y="7" class="st1" width="0" height="0.1"/>
	<rect x="10.7" y="7" transform="matrix(5.121572e-03 -1 1 5.121572e-03 3.5729 17.7415)" class="st1" width="0.1" height="0.1"/>
	<rect x="10.7" y="7" transform="matrix(0.9996 -2.769021e-02 2.769021e-02 0.9996 -0.1918 0.3006)" width="0" height="0.1"/>
	<rect x="10.8" y="7" class="st1" width="0" height="0.1"/>
	<rect x="10.5" y="7" class="st509" width="0" height="0.2"/>
	<rect x="10.5" y="7.1" class="st1" width="0" height="0.2"/>
	<polygon class="st509" points="9.7,7.1 9.8,7.1 9.8,7.3 9.8,7.3 9.7,7.3 	"/>
	<rect x="9.7" y="7.1" class="st1" width="0.1" height="0.2"/>
	<polygon class="st509" points="10.2,7.1 10.3,7.1 10.3,7.2 10.2,7.2 10.2,7.2 	"/>
	<rect x="10.2" y="7.1" class="st1" width="0.1" height="0.1"/>
	<rect x="9.2" y="7.1" width="0" height="0"/>
	<rect x="9.3" y="7.1" class="st1" width="0" height="0"/>
	
		<rect x="9.3" y="7.1" transform="matrix(0.9999 -1.015481e-02 1.015481e-02 0.9999 -7.200307e-02 9.546146e-02)" width="0.1" height="0"/>
	<rect x="10.7" y="7.1" width="0.1" height="0"/>
	<rect x="10.7" y="7.1" class="st1" width="0" height="0"/>
	<rect x="10.8" y="7.1" width="0.1" height="0"/>
	<rect x="9.2" y="7.2" class="st1" width="0.1" height="0.1"/>
	<rect x="9.3" y="7.2" transform="matrix(6.263779e-03 -1 1 6.263779e-03 2.052 16.4639)" width="0.1" height="0"/>
	
		<rect x="9.3" y="7.2" transform="matrix(2.065675e-02 -0.9998 0.9998 2.065675e-02 1.9712 16.4142)" class="st1" width="0.1" height="0"/>
	<rect x="10.7" y="7.2" class="st1" width="0.1" height="0.1"/>
	<rect x="10.7" y="7.2" width="0" height="0.1"/>
	<rect x="10.8" y="7.2" class="st1" width="0" height="0.1"/>
	<rect x="10.3" y="7.3" class="st509" width="0.1" height="0.1"/>
	<rect x="10.3" y="7.3" class="st1" width="0.1" height="0.1"/>
	<path class="st509" d="M9.2,7.3l0.2,0l0.1,0l0,0.2c-0.1,0-0.2,0-0.3,0l0,0V7.3z"/>
	<path class="st509" d="M10.6,7.3l0.2,0l0.1,0v0.2c-0.1,0-0.2,0-0.3,0V7.3z"/>
	<polygon class="st1" points="9.2,7.3 9.4,7.3 9.4,7.5 9.2,7.5 	"/>
	
		<rect x="10.6" y="7.3" transform="matrix(1 -1.938819e-03 1.938819e-03 1 -1.432954e-02 2.087584e-02)" class="st1" width="0.2" height="0.1"/>
	<polygon class="st1" points="9.7,7.4 9.8,7.4 9.8,7.5 9.7,7.5 	"/>
	<polygon class="st1" points="9.9,7.4 10,7.4 10,7.4 10,7.5 10,7.5 	"/>
	<polygon class="st509" points="10.3,7.4 10.5,7.4 10.5,7.5 10.3,7.5 	"/>
	<rect x="10.4" y="7.4" class="st1" width="0.1" height="0.1"/>
	<polygon class="st1" points="9.7,7.5 9.8,7.5 9.9,7.6 9.7,7.6 	"/>
	<polygon class="st1" points="9.9,7.5 9.9,7.5 10,7.6 9.9,7.6 	"/>
	<polygon class="st1" points="10,7.5 10.1,7.5 10.1,7.6 10,7.6 	"/>
	<polygon class="st1" points="10.1,7.5 10.2,7.5 10.3,7.6 10.2,7.6 	"/>
	<path class="st509" d="M10.6,7.5l0.2,0l0.1,0l0,0L11,7.8l0,0c-0.2,0-0.4,0-0.5,0l0.1-0.1L10.6,7.5z"/>
	<path class="st1" d="M9.2,7.5h0.3l0,0.1l0.1,0h0.2l0,0.2c-0.2,0-0.4,0-0.7,0l0.1-0.1L9.2,7.5z"/>
	<path class="st1" d="M10.6,7.5h0.2c0,0.1,0.1,0.2,0.1,0.2c-0.2,0-0.3,0-0.5,0l0.1-0.1L10.6,7.5z"/>
	<polygon class="st1" points="9.9,7.6 10,7.6 10.1,7.8 9.9,7.8 	"/>
	<polygon class="st1" points="10.2,7.6 10.3,7.6 10.3,7.6 10.5,7.8 10.3,7.8 	"/>
	<polygon class="st1" points="9,7.9 11.1,7.9 11.3,8.1 8.7,8.1 	"/>
	<polygon class="st1" points="9.2,5.4 9.4,5.4 9.3,5.2 	"/>
	<path class="st509" d="M9.2,5.4L9.2,5.4L9.2,5.4L9.2,5.4L9.2,5.4L9.2,5.4L9.2,5.4L9.2,5.4l0-0.1l0.1-0.1h0l0.1,0.1l0,0.1v0H9.2z
		 M9.4,5.4l0-0.1L9.3,5.2h0L9.2,5.3l0,0.1H9.4z"/>
	<polygon class="st1" points="10.6,5.4 10.9,5.4 10.8,5.2 	"/>
	<path class="st509" d="M10.6,5.4L10.6,5.4L10.6,5.4L10.6,5.4L10.6,5.4L10.6,5.4L10.6,5.4L10.6,5.4l0-0.1l0.1-0.1h0l0.1,0.1l0,0.1v0
		H10.6z M10.9,5.4l0-0.1l-0.1-0.1h0l-0.1,0.1l0,0.1H10.9z"/>
</g>
</svg>
